<ttFont>
<head>
        <!-- Most of this table will be recalculated by the compiler -->
        <tableVersion value="1.0"/>
        <fontRevision value="1.002"/>
        <checkSumAdjustment value="0xe4755e83"/>
        <magicNumber value="0x5f0f3cf5"/>
        <flags value="00000000 00000011"/>
        <unitsPerEm value="1000"/>
        <created value="Thu Jan 14 16:24:16 2016"/>
        <modified value="Thu Jan 14 21:24:16 2016"/>
        <xMin value="-1560"/>
        <yMin value="-284"/>
        <xMax value="610"/>
        <yMax value="1140"/>
        <macStyle value="00000000 00000000"/>
        <lowestRecPPEM value="3"/>
        <fontDirectionHint value="2"/>
        <indexToLocFormat value="0"/>
        <glyphDataFormat value="0"/>
    </head>
                    <CharString index="0">
                        rmoveto
8 53 -96 callsubr
-157 83 -85 296 -5 hvcurveto
-166 456 -80 callsubr
                    </CharString>
                    <CharString index="1">
                        rmoveto
53 -52 46 -166 13 vhcurveto
8 110 rlineto
193 hlineto
4 45 rlineto
-238 hlineto
-15 -192 rlineto
165 -10 53 -29 -37 vvcurveto
-46 -61 -31 -167 -13 vhcurveto
4 -47 72 callgsubr
14 84 53 71 vvcurveto
return
                    </CharString>
                    <CharString index="2">
                        rmoveto
121 102 105 159 154 -86 93 -120 -121 -103 -105 -157 -155 88 -94 119 hvcurveto
9 51 rmoveto
-91 -64 76 134 127 64 72 89 92 64 -75 -133 -128 -64 -73 -90 hvcurveto
endchar
                    </CharString>
                    <CharString index="3">
                        rmoveto
81 69 54 82 119 -149 33 -98 -89 hvcurveto
12 75 55 54 123 48 -18 43 rcurveline
-151 -59 -72 -91 -112 vvcurveto
-102 61 -55 87 vhcurveto
6 43 rmoveto
-62 -44 39 82 hvcurveto
2 0 2 1 vvcurveto
92 71 110 -21 -88 vvcurveto
-55 -44 -33 -52 vhcurveto
endchar
                    </CharString>
                    <CharString index="4">
                        -105 callgsubr
endchar
                    </CharString>
                    <CharString index="5">
                        55 3 rlineto
-102 callgsubr
return
                    </CharString>
                    <CharString index="6">
                        rmoveto
172 151 -32 31 -137 -120 -137 121 -39 -38 171 -145 rlineto
return
                    </CharString>
                    <CharString index="7">
                        rmoveto
38 37 -170 147 rlineto
-3 hlineto
-172 -153 32 -30 138 120 rlineto
return
                    </CharString>
                    <CharString index="8">
                        rmoveto
-103 callsubr
                    </CharString>
                    <CharString index="9">
                        rmoveto
-98 callgsubr
return
                    </CharString>
                    <CharString index="10">
                        -9 -144 -9 -129 -11 -131 rrcurveto
-3 hlineto
-8 23 -85 241 -6 17 rrcurveto
-40 hlineto
-6 -17 -82 -239 -9 -23 rrcurveto
-4 hlineto
-12 131 -9 128 -9 143 rrcurveto
-61 hlineto
12 -179 19 -183 20 -122 rrcurveto
56 hlineto
103 292 rlineto
endchar
                    </CharString>
                    <CharString index="11">
                        -248 7 -73 53 -6 125 rlinecurve
344 8 rlineto
154 18 -67 107 -130 hhcurveto
-125 -100 -113 -147 return
                    </CharString>
                    <CharString index="12">
                        rmoveto
hintmask 00111100
-63 callsubr
hintmask 01011100
-90 callgsubr
hintmask 10011100
-12 callsubr
hintmask 00111100
-92 callgsubr
                    </CharString>
                    <CharString index="13">
                        -76 callsubr
-79 callsubr
                    </CharString>
                    <CharString index="14">
                        rmoveto
-56 43 -85 84 -46 53 -50 -52 rcurveline
56 -49 96 -68 65 -38 rrcurveto
return
                    </CharString>
                    <CharString index="15">
                        8 callgsubr
hintmask 11010000
-52 callsubr
hintmask 10110000
-71 callsubr
                    </CharString>
                    <CharString index="16">
                        rmoveto
hintmask 11100100
-35 callsubr
hintmask 11011000
-22 callsubr
hintmask 11101000
-13 callsubr
hintmask 11011000
-86 callsubr
hintmask 11100100
-89 callsubr
                    </CharString>
                    <CharString index="17">
                        rmoveto
107 58 -96 -178 -175 -58 -95 -103 -108 -57 96 178 175 57 95 104 hvcurveto
endchar
                    </CharString>
                    <CharString index="18">
                        86 -276 rmoveto
-60 -35 29 38 35 32 29 55 21 hvcurveto
54 -27 51 -25 -38 vvcurveto
-34 -37 -28 -60 vhcurveto
endchar
                    </CharString>
                    <CharString index="19">
                        45 -227 vlineto
138 98 75 67 78 vvcurveto
65 -59 52 -203 -2 vhcurveto
-4 -44 rlineto
168 -3 48 -31 -50 vvcurveto
return
                    </CharString>
                    <CharString index="20">
                        -61 callsubr
-79 callgsubr
return
                    </CharString>
                    <CharString index="21">
                        -80 64 callsubr
30 31 27 58 57 33 -26 -36 -35 -31 -26 -52 -22 vhcurveto
-51 25 -45 25 38 vvcurveto
return
                    </CharString>
                    <CharString index="22">
                        721 -107 callgsubr
return
                    </CharString>
                    <CharString index="23">
                        rmoveto
-2 80 1 97 128 vvcurveto
-60 hlineto
1 -101 1 -95 1 -69 rrcurveto
-223 -21 -70 107 174 vvcurveto
145 56 111 276 5 vhcurveto
-4 60 rlineto
-300 -11 -91 -147 -175 vvcurveto
-213 120 -137 294 62 vhcurveto
return
                    </CharString>
                    <CharString index="24">
                        -76 callgsubr
367 hlineto
endchar
                    </CharString>
                    <CharString index="25">
                        355 -408 -104 callgsubr
                    </CharString>
                    <CharString index="26">
                        431 425 -98 callsubr
return
                    </CharString>
                    <CharString index="27">
                        rmoveto
92 45 -69 -101 -2 hvcurveto
-288 -8 rlineto
112 6 58 66 89 hhcurveto
endchar
                    </CharString>
                    <CharString index="28">
                        -31 -114 -29 -116 -37 -132 rrcurveto
-4 hlineto
-8 81 -19 298 -7 165 rrcurveto
-62 hlineto
13 -267 21 -236 15 -117 rrcurveto
73 hlineto
94 348 rlineto
endchar
                    </CharString>
                    <CharString index="29">
                        rmoveto
-83 callsubr
                    </CharString>
                    <CharString index="30">
                        -45 -37 110 -64 hhcurveto
-48 -43 -51 -86 -36 hvcurveto
37 -15 rlineto
61 26 28 40 29 45 38 -110 64 hhcurveto
return
                    </CharString>
                    <CharString index="31">
                        71 hlineto
15 117 22 236 13 267 rrcurveto
-59 hlineto
-7 -165 -18 -298 -9 -81 rrcurveto
-3 hlineto
-32 116 -36 130 -31 116 rrcurveto
-41 hlineto
return
                    </CharString>
                    <CharString index="32">
                        -191 437 -244 hlineto
-5 -42 188 -8 rlineto
-387 -190 -47 vlineto
return
                    </CharString>
                    <CharString index="33">
                        rmoveto
5 53 -162 3 -38 54 -1 123 rlinecurve
211 5 rlineto
161 11 -43 97 -87 hhcurveto
-55 -41 -35 -60 -24 hvcurveto
hintmask 11010111
-26 64 -60 22 -117 7 -5 -53 rcurveline
142 -10 36 -30 3 -128 rrcurveto
-131 -4 -71 -54 -96 vvcurveto
-77 44 -42 59 60 46 39 42 27 vhcurveto
hintmask 10101111
34 -51 65 -27 118 -3 rrcurveto
-114 444 rmoveto
53 22 -57 -111 -2 hvcurveto
-155 -4 rlineto
117 3 28 55 51 hhcurveto
-215 -393 rmoveto
-38 -27 25 57 hvcurveto
hintmask 11001111
69 50 27 93 1 vhcurveto
-43 4 -38 12 -33 vhcurveto
hintmask 10101111
-37 -23 -32 -28 -39 hhcurveto
endchar
                    </CharString>
                    <CharString index="34">
                        -21 callgsubr
58 -49 88 70 54 33 33 41 vhcurveto
endchar
                    </CharString>
                    <CharString index="35">
                        -75 callsubr
endchar
                    </CharString>
                    <CharString index="36">
                        -61 134 -59 138 -54 135 -62 -3 rcurveline
56 -135 86 -201 65 -139 rrcurveto
1 hlineto
-38 -86 -27 -22 -128 -20 rrcurveto
endchar
                    </CharString>
                    <CharString index="37">
                        701 -103 callgsubr
return
                    </CharString>
                    <CharString index="38">
                        rmoveto
-147 83 -108 289 16 vhcurveto
8 52 rlineto
-62 callgsubr
endchar
                    </CharString>
                    <CharString index="39">
                        149 -322 44 116 vvcurveto
56 61 47 227 -14 vhcurveto
-4 58 rlineto
-254 15 -93 -87 -86 -145 322 -41 -122 vvcurveto
return
                    </CharString>
                    <CharString index="40">
                        -262 -100 callgsubr
                    </CharString>
                    <CharString index="41">
                        rmoveto
261 13 68 97 161 vvcurveto
40 -1 305 -1 27 vhcurveto
15 -47 -44 8 -46 hhcurveto
-135 -121 -96 -158 -130 80 -77 106 61 51 23 28 36 hvcurveto
return
                    </CharString>
                    <CharString index="42">
                        rmoveto
-62 callsubr
-184 87 -137 314 19 vhcurveto
endchar
                    </CharString>
                    <CharString index="43">
                        rmoveto
-72 callgsubr
                    </CharString>
                    <CharString index="44">
                        62 6 -42 callsubr
rlinecurve
-88 hlineto
return
                    </CharString>
                    <CharString index="45">
                        -273 -11 -70 98 170 vvcurveto
147 56 104 281 8 vhcurveto
-4 60 rlineto
-301 -12 -96 -147 -169 vvcurveto
return
                    </CharString>
                    <CharString index="46">
                        rmoveto
15 callsubr
-63 -132 hlineto
return
                    </CharString>
                    <CharString index="47">
                        -8 243 rmoveto
55 45 35 52 61 43 -40 -81 vhcurveto
-3 0 -2 -2 vvcurveto
-91 -70 -110 20 88 vvcurveto
endchar
                    </CharString>
                    <CharString index="48">
                        585 -107 callgsubr
return
                    </CharString>
                    <CharString index="49">
                        -9 54 -25 -21 293 46 237 31 callsubr
hintmask 10110110
496 323 rmoveto
hintmask 01101110
32 callsubr
-283 -75 -46 75 -293 vlineto
hintmask 10110110
25 callgsubr
-343 -273 rmoveto
242 143 vlineto
3 46 rlineto
-146 233 hlineto
41 callsubr
41 callgsubr
endchar
                    </CharString>
                    <CharString index="50">
                        -12 50 -19 56 callgsubr
230 42 166 54 return
                    </CharString>
                    <CharString index="51">
                        44 253.5 112.5 return
                    </CharString>
                    <CharString index="52">
                        -73 callgsubr
hintmask 01011111
42 callsubr
hintmask 00111111
-102 callsubr
hintmask 10011111
-43 callgsubr
hintmask 01011111
-23 callgsubr
                    </CharString>
                    <CharString index="53">
                        -12 53 -50 callgsubr
return
                    </CharString>
                    <CharString index="54">
                        rmoveto
21 51 rlineto
-184 57 -77 40 56 62 89 42 62 vvcurveto
38 -32 41 -82 20 vhcurveto
hintmask 11001000
85 22 32 41 36 57 -98 50 55 vvcurveto
48 80 44 189 54 vhcurveto
-19 53 rlineto
-227 -72 -82 -68 -67 -73 102 -45 -48 vvcurveto
-31 -37 -27 -132 -11 vhcurveto
-1 -45 rlineto
hintmask 11010000
116 -6 49 -35 -39 vvcurveto
hintmask 10110000
-49 -94 -44 -78 vvcurveto
-73 79 -46 223 -72 vhcurveto
endchar
                    </CharString>
                    <CharString index="55">
                        71 171 53 143 45 126 rrcurveto
-58 hlineto
-35 -95 -69 -200 -46 -110 rrcurveto
-7 hlineto
return
                    </CharString>
                    <CharString index="56">
                        423 425 rmoveto
-87 callgsubr
return
                    </CharString>
                    <CharString index="57">
                        rmoveto
5 -47 callsubr
-3 18 callgsubr
return
                    </CharString>
                    <CharString index="58">
                        2 -514 rlineto
-4 hlineto
-243 514 rlineto
-74 -620 59 hlineto
-2 526 rlineto
5 hlineto
return
                    </CharString>
                    <CharString index="59">
                        5 54 -337 -1 328 380 rlineto
51 -388 vlineto
-5 -53 rlineto
324 hlineto
-328 -379 rlineto
-52 vlineto
endchar
                    </CharString>
                    <CharString index="60">
                        -7 callgsubr
-64 hlineto
return
                    </CharString>
                    <CharString index="61">
                        rmoveto
hintmask 00111111
-63 callsubr
hintmask 01011111
-90 callgsubr
hintmask 10011111
-12 callsubr
hintmask 00111111
-92 callgsubr
                    </CharString>
                    <CharString index="62">
                        -31 callgsubr
119 -58 49 -90 return
                    </CharString>
                    <CharString index="63">
                        47 44 51 86 35 hvcurveto
-37 16 rlineto
-62 -27 -27 -40 -29 return
                    </CharString>
                    <CharString index="64">
                        44.5 return
                    </CharString>
                    <CharString index="65">
                        -59 206 -62 205 -67 208 return
                    </CharString>
                    <CharString index="66">
                        713 -93 callsubr
return
                    </CharString>
                    <CharString index="67">
                        rmoveto
28 -11 62 91 12 80 -16 78 rlinecurve
-73 -2 22 -73 10 -71 -45 -92 rlinecurve
return
                    </CharString>
                    <CharString index="68">
                        -18 callgsubr
hstem
-24 callsubr
vstem
417 return
                    </CharString>
                    <CharString index="69">
                        -14 callgsubr
156 62 return
                    </CharString>
                    <CharString index="70">
                        -42 callgsubr
268 50 return
                    </CharString>
                    <CharString index="71">
                        -37 callsubr
vstem
431 return
                    </CharString>
                    <CharString index="72">
                        95 60 50 56 49 -51 30 -55 27 hvcurveto
return
                    </CharString>
                    <CharString index="73">
                        -1 120 -2 105 -1 91 53 39 73 27 107 8 -3 64 rcurveline
-105 -11 -78 -40 -49 -47 rrcurveto
return
                    </CharString>
                    <CharString index="74">
                        1 -129 3 -85 vhcurveto
-30 -43 -45 return
                    </CharString>
                    <CharString index="75">
                        rmoveto
151 60 73 90 112 vvcurveto
103 -62 54 -87 -81 -69 -54 -82 return
                    </CharString>
                    <CharString index="76">
                        0 54 236 48 228 54 return
                    </CharString>
                    <CharString index="77">
                        62 callgsubr
hintmask 11010000
-34 callsubr
hintmask 10110000
-47 callgsubr
return
                    </CharString>
                    <CharString index="78">
                        63 callgsubr
hintmask 10111000
-49 callsubr
endchar
                    </CharString>
                    <CharString index="79">
                        587 -107 callgsubr
return
                    </CharString>
                    <CharString index="80">
                        -5 55 -56 -4 rlineto
5 11 callgsubr
61 hlineto
return
                    </CharString>
                    <CharString index="81">
                        45 hstemhm
135 293 -52.5 34 callgsubr
return
                    </CharString>
                    <CharString index="82">
                        -142 -44 callgsubr
return
                    </CharString>
                    <CharString index="83">
                        -25 callgsubr
166 48 return
                    </CharString>
                    <CharString index="84">
                        -26 callsubr
hintmask 11000000
240 return
                    </CharString>
                    <CharString index="85">
                        -59 callgsubr
8 callsubr
return
                    </CharString>
                    <CharString index="86">
                        -169 354 -67 -2 202 -413 rlineto
-206 vlineto
endchar
                    </CharString>
                    <CharString index="87">
                        -39 callgsubr
243 62 return
                    </CharString>
                    <CharString index="88">
                        rmoveto
-326 -53 326 hlineto
return
                    </CharString>
                    <CharString index="89">
                        rmoveto
hintmask 01011100
32 callsubr
-622 vlineto
hintmask 10101100
25 callgsubr
-63 -12 rmoveto
41 callgsubr
521 vlineto
41 callsubr
endchar
                    </CharString>
                    <CharString index="90">
                        180 -2 128 -3 86 vhcurveto
29 43 46 20 53 hhcurveto
return
                    </CharString>
                    <CharString index="91">
                        44 326 43 hstem
115 51 218 51 vstem
269 return
                    </CharString>
                    <CharString index="92">
                        -11 53 189 40 174 51 return
                    </CharString>
                    <CharString index="93">
                        rmoveto
172 224 3 62 -172 227 -47 -35 173 -224 -174 -216 rlineto
-189 -38 rmoveto
171 224 4 62 -173 227 -47 -35 174 -224 -174 -216 rlineto
endchar
                    </CharString>
                    <CharString index="94">
                        9 callsubr
26 callsubr
return
                    </CharString>
                    <CharString index="95">
                        20 -68 20 -68 19 -69 rrcurveto
return
                    </CharString>
                    <CharString index="96">
                        rmoveto
219 175 88 148 144 vvcurveto
141 -87 145 -216 174 vhcurveto
-42 -42 rlineto
206 -159 79 -132 -129 vvcurveto
-131 -79 -133 -210 -161 vhcurveto
endchar
                    </CharString>
                    <CharString index="97">
                        703 -50 callsubr
return
                    </CharString>
                    <CharString index="98">
                        -56 callgsubr
64 callgsubr
return
                    </CharString>
                    <CharString index="99">
                        9 callgsubr
179 49 return
                    </CharString>
                    <CharString index="100">
                        0 8 -2 3 -4 -4 -2 -3 43 callsubr
0 -9 2 -3 4 4 2 3 43 callsubr
return
                    </CharString>
                    <CharString index="101">
                        69 -44 28 -32 -23 vvcurveto
-24 -35 -15 -87 -14 vhcurveto
return
                    </CharString>
                    <CharString index="102">
                        0 47 603.5 12 callsubr
return
                    </CharString>
                    <CharString index="103">
                        27 callsubr
11 callsubr
return
                    </CharString>
                    <CharString index="104">
                        rmoveto
-87 callgsubr
endchar
                    </CharString>
                    <CharString index="105">
                        -15 callsubr
12 callgsubr
return
                    </CharString>
                    <CharString index="106">
                        rmoveto
5 53 rlineto
-171 3 -48 24 90 vvcurveto
275 209 48 -209 143 vlineto
return
                    </CharString>
                    <CharString index="107">
                        25 callsubr
hstemhm
49 451 hintmask 10110000
return
                    </CharString>
                    <CharString index="108">
                        38 170 42 hstem
125 48 201 50 vstem
200 return
                    </CharString>
                    <CharString index="109">
                        -34 -41 -58 -27 -57 hhcurveto
return
                    </CharString>
                    <CharString index="110">
                        -65 -81 -63 -149 -105 vhcurveto
return
                    </CharString>
                    <CharString index="111">
                        hstem
60 61 309 60 vstem
return
                    </CharString>
                    <CharString index="112">
                        40 333 40 -12 callgsubr
hintmask 11101000
267 return
                    </CharString>
                    <CharString index="113">
                        21 -21 620 -20 21 -20 hstemhm
244 63 hintmask 10110000
return
                    </CharString>
                    <CharString index="114">
                        47 313.5 -6 callgsubr
return
                    </CharString>
                    <CharString index="115">
                        -47 45 -30 51 -26 vhcurveto
return
                    </CharString>
                    <CharString index="116">
                        -64 -26 -40 -36 -50 vvcurveto
return
                    </CharString>
                    <CharString index="117">
                        0 76 544 -20 hstem
59 62 312 59 vstem
return
                    </CharString>
                    <CharString index="118">
                        hstem
82 62 261 63 vstem
return
                    </CharString>
                    <CharString index="119">
                        46.5 return
                    </CharString>
                    <CharString index="120">
                        -6 53 177 43 -37.5 38.5 167 53 -50 52 hstemhm
39 59 143 55 155 56 hintmask 10101111
return
                    </CharString>
                    <CharString index="121">
                        rmoveto
200 54 -460 hlineto
-5 -54 rlineto
202 -566 63 hlineto
return
                    </CharString>
                    <CharString index="122">
                        2 -7 callgsubr
return
                    </CharString>
                    <CharString index="123">
                        -17 callsubr
endchar
                    </CharString>
                    <CharString index="124">
                        -220 40 189 72 callsubr
161 40 return
                    </CharString>
                    <CharString index="125">
                        24 callsubr
262 58 hintmask 01111000
return
                    </CharString>
                    <CharString index="126">
                        30 hvcurveto
-150 1 -97 2 -93 vhcurveto
-27 -34 -45 -21 -45 hhcurveto
return
                    </CharString>
                    <CharString index="127">
                        -57 callsubr
54 51 callsubr
72 60 11 63 callsubr
-6 60 return
                    </CharString>
                    <CharString index="128">
                        40 callgsubr
-177 30 callsubr
                    </CharString>
                    <CharString index="129">
                        47 179 -20 154.5 -43 callsubr
return
                    </CharString>
                    <CharString index="130">
                        33 callsubr
51 callgsubr
return
                    </CharString>
                    <CharString index="131">
                        0 106 -85 -21 526 94 hstemhm
86 58 return
                    </CharString>
                    <CharString index="132">
                        -157 -21 662 -20 22 -20 return
                    </CharString>
                    <CharString index="133">
                        -57 55 -39 84 vhcurveto
return
                    </CharString>
                    <CharString index="134">
                        -15 55 580 -20 return
                    </CharString>
                    <CharString index="135">
                        rmoveto
250 225 4 63 -249 227 -41 -42 241 -217 -245 -214 rlineto
endchar
                    </CharString>
                    <CharString index="136">
                        16 -21 26 -21 26 -21 218 46 213 -20 25 -20 231 47 callgsubr
110 60 return
                    </CharString>
                    <CharString index="137">
                        -143 80 -87 106 62 51 29 33 36 hvcurveto
endchar
                    </CharString>
                    <CharString index="138">
                        55 81 callsubr
92 61 280 63 return
                    </CharString>
                    <CharString index="139">
                        237 -114 103 -290 -42 vhcurveto
return
                    </CharString>
                    <CharString index="140">
                        0 50 520 50 return
                    </CharString>
                    <CharString index="141">
                        -1 -86 rlineto
48 hlineto
return
                    </CharString>
                    <CharString index="142">
                        -12 52 -21 72 callsubr
441 52 -5 -20 228 47 callgsubr
60 61 268 61 return
                    </CharString>
                    <CharString index="143">
                        58 4 rlineto
-5 112 -2 156 210 vvcurveto
return
                    </CharString>
                    <CharString index="144">
                        71 callsubr
hstem
359 50 vstem
423 return
                    </CharString>
                    <CharString index="145">
                        703 -61 callsubr
return
                    </CharString>
                    <CharString index="146">
                        0 9 7 6 9 9 7 -6 43 callsubr
return
                    </CharString>
                    <CharString index="147">
                        31 callgsubr
98 43 return
                    </CharString>
                    <CharString index="148">
                        198 25 82 -83 -202 vvcurveto
return
                    </CharString>
                    <CharString index="149">
                        165 -40 rmoveto
return
                    </CharString>
                    <CharString index="150">
                        0 hflex1
return
                    </CharString>
                    <CharString index="151">
                        53 callsubr
98 43 99 return
                    </CharString>
                    <CharString index="152">
                        rmoveto
-1 -51 rlineto
320 871 -319 -52 262 -768 hlineto
endchar
                    </CharString>
                    <CharString index="153">
                        21 callgsubr
hstemhm
96 61 return
                    </CharString>
                    <CharString index="154">
                        -14 51 -22 -21 452 51 81 callsubr
60 61 310 59 hintmask 10101100
return
                    </CharString>
                    <CharString index="155">
                        -15 53 -26 -21 591 53 -6 -20 hstemhm
13 callgsubr
hintmask 10101100
return
                    </CharString>
                    <CharString index="156">
                        43 89 22 callsubr
hstemhm
return
                    </CharString>
                    <CharString index="157">
                        hintmask 000000000000000010000010000000000000000000000000
return
                    </CharString>
                    <CharString index="158">
                        40 128 41 hstemhm
return
                    </CharString>
                    <CharString index="159">
                        -20 hstem
120 62 return
                    </CharString>
                    <CharString index="160">
                        -220 47 174 -21 78 callgsubr
-43 callsubr
return
                    </CharString>
                    <CharString index="161">
                        -3 54 516 60 hstem
69 64 vstem
return
                    </CharString>
                    <CharString index="162">
                        rmoveto
43 callgsubr
return
                    </CharString>
                    <CharString index="163">
                        45 hstemhm
156 59 -56 62 32 57 -52 55 hintmask 10110000
461 return
                    </CharString>
                    <CharString index="164">
                        320 567 rmoveto
8 -47 callsubr
-5 18 callgsubr
return
                    </CharString>
                    <CharString index="165">
                        -62 5 -57 -77 -58 -72 -65 -68 rlinecurve
-85 -2 rlineto
435 vlineto
return
                    </CharString>
                    <CharString index="166">
                        hstem
220 44 190 -43 callsubr
vstem
325 return
                    </CharString>
                    <CharString index="167">
                        rmoveto
68 callgsubr
                    </CharString>
                    <CharString index="168">
                        27 callgsubr
83 132 return
                    </CharString>
                    <CharString index="169">
                        45 -30 127 -12 vhcurveto
return
                    </CharString>
                    <CharString index="170">
                        48 166 47 return
                    </CharString>
                    <CharString index="171">
                        316 rmoveto
return
                    </CharString>
                    <CharString index="172">
                        65 10 -201 245 67 73 63 78 60 81 rlinecurve
return
                    </CharString>
                    <CharString index="173">
                        10 hlineto
0 6 -1 3 -4 -3 -2 -2 43 callsubr
return
                    </CharString>
                    <CharString index="174">
                        -88 10 -34 15 25 vvcurveto
25 29 77 callgsubr
return
                    </CharString>
                    <CharString index="175">
                        -60 -5 rlineto
-698 60 222 vlineto
83 2 rlineto
return
                    </CharString>
                    <CharString index="176">
                        -6 2 -3 5 4 2 2 4 1 vhcurveto
5 hlineto
return
                    </CharString>
                    <CharString index="177">
                        hintmask 100000000000000000000000000000001000000000000000
return
                    </CharString>
                    <CharString index="178">
                        45 314 44 return
                    </CharString>
                    <CharString index="179">
                        -21 25 -21 return
                    </CharString>
                    <CharString index="180">
                        50 769 51 hstem
143 58 vstem
143 return
                    </CharString>
                    <CharString index="181">
                        hlineto
18 181 rlineto
-46 hlineto
-18 -181 rlineto
return
                    </CharString>
                    <CharString index="182">
                        -14 51 409 51 return
                    </CharString>
                    <CharString index="183">
                        -4 52 386 58 return
                    </CharString>
                    <CharString index="184">
                        96.5 return
                    </CharString>
                    <CharString index="185">
                        110 63 return
                    </CharString>
                    <CharString index="186">
                        51 768 52 hstem
351 57 vstem
89 return
                    </CharString>
                    <CharString index="187">
                        hstemhm
111 62 return
                    </CharString>
                    <CharString index="188">
                        -9 -20 hstemhm
return
                    </CharString>
                    <CharString index="189">
                        -183 3 2 166 -61 1 rlineto
return
                    </CharString>
                    <CharString index="190">
                        hstemhm
72 60 return
                    </CharString>
                    <CharString index="191">
                        34 rlineto
-78 hlineto
5 -291 rlineto
return
                    </CharString>
                    <CharString index="192">
                        -210 45 18 -21 317 44 return
                    </CharString>
                    <CharString index="193">
                        -79 hhcurveto
-54 -38 -50 -98 -37 hvcurveto
return
                    </CharString>
                    <CharString index="194">
                        28 42 44 19 52 hhcurveto
endchar
                    </CharString>
                    <CharString index="195">
                        144 415 rmoveto
return
                    </CharString>
                    <CharString index="196">
                        rlineto
-88 10 -34 return
                    </CharString>
                    <CharString index="197">
                        hstem
71 60 return
                    </CharString>
                    <CharString index="198" fingerprint="ecf99dc2">
                        92 callsubr
36 42 return
                    </CharString>
                    <CharString index="199" fingerprint="f9df3c06">
                        -328 -279 rlineto
-53 vlineto
333 -283 return
                    </CharString>
                    <CharString index="200" fingerprint="8ff4d132">
                        rmoveto
93 hlineto
3 96 rlineto
-94 hlineto
endchar
                    </CharString>
                    <CharString index="201" fingerprint="076e1c46">
                        57 hintmask 11100000
95 callsubr
144 -121 rlineto
return
                    </CharString>
                    <CharString index="202" fingerprint="ea3a6f68">
                        133 595 rmoveto
-36 -43 return
                    </CharString>
                    <CharString index="203" fingerprint="ce96b479">
                        hlineto
hintmask 11010000
101 -85 rlineto
-8 vlineto
-92 -78 96 callgsubr
return
                    </CharString>
                    <CharString index="204" fingerprint="653069d6">
                        306 258 -36 43 return
                    </CharString>
                    <CharString index="205" fingerprint="9d42e380">
                        99 callsubr
92 callsubr
return
                    </CharString>
                    <CharString index="206" fingerprint="a8585996">
                        8 vlineto
97 callsubr
return
                    </CharString>
                    <CharString index="207" fingerprint="36aee12c">
                        -181 898 return
                    </CharString>
                    <CharString index="208" fingerprint="0b3c1f4e">
                        94 callgsubr
-1010 return
                    </CharString>
                    <CharString index="209" fingerprint="75fc0322">
                        hlineto
-193 164 -36 -43 rlineto
return
                    </CharString>
                    <CharString index="210" fingerprint="735054ce">
                        306 101 callgsubr
return
                    </CharString>
                    <CharString index="211" fingerprint="4d0a4e5f">
                        -312 -264 35 -42 return
                    </CharString>
                    <CharString index="212" fingerprint="91954767">
                        hlineto
102 callgsubr
return
                    </CharString>
                    <CharString index="213" fingerprint="4ef4eda0">
                        264 52 hstem
return
                    </CharString>
                    <CharString index="214" fingerprint="ada6e010">
                        hlineto
-286 -242 98 callgsubr
endchar
                    </CharString>
                    <CharString index="215" fingerprint="9b6142ec">
                        316 rmoveto
return
                    </CharString>
                    <CharString index="216" fingerprint="a9d1a864">
                        rmoveto
-56 -5 rlineto
-881 56 vlineto
return
                    </CharString>
                    <CharString index="217" fingerprint="f593abee">
                        rmoveto
96 hlineto
2 101 rlineto
-97 hlineto
return
                    </CharString>
                    <CharString index="218" fingerprint="28fd4823">
                        rmoveto
102 callgsubr
return
                    </CharString>
                    <CharString index="219" fingerprint="89cb26bd">
                        264 rlineto
8 vlineto
return
                    </CharString>
                    <CharString index="220" fingerprint="c237e4e4">
                        rlineto
54 vlineto
668 278 25 -43 -605 101 callgsubr
return
                    </CharString>
                    <CharString index="221" fingerprint="c030e715">
                        -51 24 -469 -879 54 -19 return
                    </CharString>
                    <CharString index="222" fingerprint="99cad421">
                        -205 1099 hstem
-20 629 vstem
return
                    </CharString>
                <CharString name=".notdef">
                    -200 50 900 50 hstem
5 54 432 54 vstem
5 -200 rmoveto
540 1000 -540 hlineto
77 -50 rmoveto
386 hlineto
-193 -390 rlineto
216 64 callsubr
-752 vlineto
-186 376 rlineto
-246 -376 rmoveto
752 vlineto
186 -376 rlineto
30 -60 rmoveto
193 -390 rlineto
-386 hlineto
endchar
                </CharString>
                <CharString name="A">
                    -9 callsubr
hintmask 10011100
445 -3 -95 callsubr
                </CharString>
                <CharString name="AE">
                    57 callgsubr
259 566 -37 callgsubr
                </CharString>
                <CharString name="AEacute">
                    57 callgsubr
223 -85 callsubr
36 -155 -37 callgsubr
                </CharString>
                <CharString name="Aacute">
                    -9 callsubr
hintmask 00111100
179 -85 callsubr
hintmask 10011100
266 -724 -95 callsubr
                </CharString>
                <CharString name="Abreve">
                    -56 callgsubr
79 50 64 callgsubr
hintmask 00111110
271 -70 callsubr
hintmask 10011110
174 -704 -46 callgsubr
                </CharString>
                <CharString name="Acircumflex">
                    -9 callsubr
hintmask 00111100
408 -52 callgsubr
hintmask 10011100
174 -820 -95 callsubr
                </CharString>
                <CharString name="Adieresis">
                    -56 callgsubr
81 65 callgsubr
135.5 -38 callsubr
hintmask 00111111
415 703 -87 callsubr
hintmask 10011111
309 -706 -46 callsubr
                </CharString>
                <CharString name="Agrave">
                    -9 callsubr
hintmask 00111100
367 -41 callsubr
hintmask 10011100
98 -689 -95 callsubr
                </CharString>
                <CharString name="Amacron">
                    -56 callgsubr
124 53 64 callgsubr
hintmask 00111110
437 33 callgsubr
hintmask 10011110
8 -749 -46 callgsubr
                </CharString>
                <CharString name="Aogonek">
                    -207 50 178 7 callgsubr
196 48 317 55 hstemhm
314 56 hintmask 10011110
485 -207 rmoveto
7 50 rlineto
-89 10 -33 16 25 vvcurveto
hintmask 10101110
24 29 32 108 53 vhcurveto
-42 callsubr
rrcurveto
-88 hlineto
hintmask 11001110
-90 callgsubr
hintmask 10011110
19 -65 19 -65 18 -66 rrcurveto
-94 -50 -34 -38 -38 vvcurveto
-45 45 -30 126 -12 vhcurveto
-215 774 -88 callgsubr
                </CharString>
                <CharString name="Aring">
                    20 callgsubr
273 890 -70 callgsubr
                </CharString>
                <CharString name="Aringacute">
                    20 callgsubr
179 962 -107 callgsubr
94 -72 -70 callgsubr
                </CharString>
                <CharString name="Atilde">
                    -56 callgsubr
80 51 59 51 64 callgsubr
hintmask 00111111
351 702 -89 callgsubr
hintmask 10011111
94 -705 -46 callsubr
                </CharString>
                <CharString name="B">
                    -9 52 -22 -21 287 49 240 52 -8 -20 hstemhm
101 62 246 60 -41 62 hintmask 10110101
490 172 rmoveto
-1 90 -61 46 -91 14 rrcurveto
hintmask 01101110
75 21 57 49 86 vvcurveto
132 -142 37 -226 -27 vhcurveto
-620 vlineto
hintmask 10110101
220 -30 170 47 -1 155 rrcurveto
-327 400 rmoveto
hintmask 10110110
148 17 98 -28 -97 vvcurveto
-91 -67 -41 -179 4 vhcurveto
hintmask 10110101
-287 vmoveto
238 vlineto
177 7 88 -23 -103 vvcurveto
-112 -105 -28 -160 21 vhcurveto
endchar
                </CharString>
                <CharString name="C">
                    54 callsubr
476 51 -65 callsubr
                </CharString>
                <CharString name="Cacute">
                    54 callsubr
218 -85 callsubr
258 -670 -65 callsubr
                </CharString>
                <CharString name="Ccaron">
                    54 callsubr
320 -54 callgsubr
158 -640 -65 callsubr
                </CharString>
                <CharString name="Ccedilla">
                    -3 54 -37 -21 574 60 hstemhm
69 64 196 54 hintmask 10111000
383 -111 rmoveto
36 -33 40 -69 44 vhcurveto
51 -12 62 -5 76 5 6 54 rcurveline
-62 callsubr
hintmask 01111000
-129 43 -106 134 -45 vhcurveto
-14 -26 rlineto
-6 callsubr
5 -50 rlineto
hintmask 10111000
37 callgsubr
endchar
                </CharString>
                <CharString name="Cdotaccent">
                    -3 54 516 60 76 84 callgsubr
69 64 149.5 63 vstem
343 -10 callsubr
195 -652 -65 callsubr
                </CharString>
                <CharString name="D">
                    48 callgsubr
496 323 -18 callsubr
                </CharString>
                <CharString name="Dcaron">
                    48 callgsubr
273 697 -101 callsubr
225 -374 -18 callsubr
                </CharString>
                <CharString name="Dcroat">
                    -58 callsubr
                </CharString>
                <CharString name="E">
                    -19 callgsubr
vstem
483 54 -78 callsubr
                </CharString>
                <CharString name="Eacute">
                    -19 callgsubr
vstem
203 -85 callsubr
280 -667 -78 callsubr
                </CharString>
                <CharString name="Ebreve">
                    -31 callsubr
81 50 hstem
78 callsubr
vstem
295 -70 callsubr
188 -647 -78 callsubr
                </CharString>
                <CharString name="Ecaron">
                    -19 callgsubr
vstem
304 -54 callgsubr
181 -637 -78 callsubr
                </CharString>
                <CharString name="Ecircumflex">
                    -19 callgsubr
vstem
432 -52 callgsubr
188 -763 -78 callsubr
                </CharString>
                <CharString name="Edieresis">
                    -31 callsubr
83 65 callgsubr
78 callsubr
-13.5 -38 callsubr
hintmask 11111010
439 38 callsubr
hintmask 11110110
-79 callgsubr
323 -649 rmoveto
hintmask 11111010
-83 callsubr
                </CharString>
                <CharString name="Edotaccent">
                    -31 callsubr
83 84 callgsubr
78 callsubr
94.5 63 vstem
328 -10 callsubr
217 -649 -78 callsubr
                </CharString>
                <CharString name="Egrave">
                    -19 callgsubr
vstem
391 -41 callsubr
112 -632 -78 callsubr
                </CharString>
                <CharString name="Emacron">
                    -31 callsubr
126 53 hstem
78 callsubr
vstem
461 33 callgsubr
22 -692 -78 callsubr
                </CharString>
                <CharString name="Eogonek">
                    -19 callgsubr
111 56 vstem
462 -159 rmoveto
67 callsubr
81 callgsubr
-76 callgsubr
296 hlineto
-89 -49 -33 -36 -37 85 callgsubr
endchar
                </CharString>
                <CharString name="Eth">
                    -58 callsubr
                </CharString>
                <CharString name="Euro">
                    1 -21 222 48 -43 44 110 45 235 -20 hstemhm
132 54 hintmask 10111100
485 32 rmoveto
-178 26 -79 56 -29 93 rrcurveto
223 hlineto
3 44 rlineto
-235 hlineto
-3 19 -1 20 21 vvcurveto
18 1 16 1 16 vhcurveto
237 hlineto
3 45 rlineto
-233 hlineto
24 95 73 52 186 29 -11 59 rcurveline
-210 -40 -89 -78 -28 -114 rrcurveto
-75 -48 67 hlineto
hintmask 11011100
-2 -17 -1 -18 0 -19 0 -20 1 -19 -18 flex1
-67 -48 76 hlineto
32 -120 97 -77 206 -25 rrcurveto
endchar
                </CharString>
                <CharString name="F">
                    21 -21 279 49 238 54 hstem
118 62 vstem
449 279 rmoveto
49 -269 238 311 54 -373 -620 62 279 vlineto
endchar
                </CharString>
                <CharString name="G">
                    76 callgsubr
hstem
57 63 290 60 vstem
471 6 -84 callsubr
endchar
                </CharString>
                <CharString name="Gbreve">
                    76 callgsubr
74 50 hstem
57 63 290 60 vstem
288 -70 callsubr
183 -695 -84 callsubr
endchar
                </CharString>
                <CharString name="Gcommaaccent">
                    76 callgsubr
hstem
57 63 147 63 80 60 vstem
471 6 -84 callsubr
-230 -277 -100 callgsubr
                </CharString>
                <CharString name="Gdotaccent">
                    76 callgsubr
76 84 callgsubr
57 63 140.5 63 86.5 60 vstem
321 -10 callsubr
212 -697 -84 callsubr
endchar
                </CharString>
                <CharString name="H">
                    21 -21 290 49 281 -20 hstem
86 63 252 63 vstem
401 hmoveto
63 620 -63 -281 -252 281 -63 -620 63 290 252 hlineto
endchar
                </CharString>
                <CharString name="Hbar">
                    21 -21 278 49 122 46 -45 43 -43 170 hstemhm
86 63 252 63 hintmask 11010110
401 327 rmoveto
-252 123 252 hlineto
-450 vmoveto
63 hlineto
hintmask 11100110
449 75 46 -75 vlineto
hintmask 11001110
125 -63 vlineto
hintmask 11010110
-127 -252 vlineto
hintmask 11001110
127 -63 vlineto
hintmask 11100110
-125 -75 -46 75 -449 63 278 252 vlineto
endchar
                </CharString>
                <CharString name="I">
                    23 callsubr
305 570 -80 callgsubr
                </CharString>
                <CharString name="Iacute">
                    23 callsubr
181 -85 callsubr
124 -151 -80 callgsubr
                </CharString>
                <CharString name="Ibreve">
                    33 callsubr
81 50 51 callgsubr
273 -70 callsubr
32 -131 -80 callgsubr
                </CharString>
                <CharString name="Icircumflex">
                    23 callsubr
410 -52 callgsubr
32 -247 -80 callgsubr
                </CharString>
                <CharString name="Idieresis">
                    33 callsubr
83 84 callgsubr
137.5 -14 callgsubr
43 62 51 62 vstem
417 703 -87 callsubr
167 -133 -80 callgsubr
                </CharString>
                <CharString name="Idotaccent">
                    33 callsubr
83 65 callgsubr
243 62 -59.5 63 hintmask 11101000
306 -10 callsubr
hintmask 11110000
61 -133 -80 callgsubr
                </CharString>
                <CharString name="Igrave">
                    23 callsubr
369 -41 callsubr
-44 -116 -80 callgsubr
                </CharString>
                <CharString name="Imacron">
                    33 callsubr
126 53 51 callgsubr
439 33 callgsubr
-134 -176 -80 callgsubr
                </CharString>
                <CharString name="Iogonek">
                    -209 50 159 50 520 50 hstemhm
164 57 22 62 hintmask 11101000
343 -159 rmoveto
hintmask 11111000
-89 10 -33 17 28 vvcurveto
24 20 29 62 51 vhcurveto
162 hlineto
5 50 rlineto
hintmask 11101000
-165 520 -35 callgsubr
hlineto
hintmask 11111000
-160 -50 166 hlineto
-61 -48 -24 -34 -35 vvcurveto
-49 46 -31 126 -12 vhcurveto
endchar
                </CharString>
                <CharString name="J">
                    -11 58 522 51 hstem
352 63 vstem
132 620 rmoveto
-51 220 -373 vlineto
-127 -38 -31 -221 9 vhcurveto
-58 vlineto
246 -6 76 67 145 vvcurveto
425 vlineto
endchar
                </CharString>
                <CharString name="K">
                    58 callgsubr
hintmask 10011100
444 -5 rmoveto
hintmask 00111100
29 callgsubr
hintmask 01011100
-620 62 288 71 vlineto
endchar
                </CharString>
                <CharString name="Kcommaaccent">
                    58 callgsubr
89 63 hintmask 10011110
444 -5 rmoveto
hintmask 00111110
29 callgsubr
hintmask 01011110
-620 62 288 71 vlineto
-8 -555 -100 callgsubr
                </CharString>
                <CharString name="L">
                    0 54 566 -20 hstem
120 62 19 callgsubr
endchar
                </CharString>
                <CharString name="Lacute">
                    79 callgsubr
211 -85 callsubr
280 -721 60 callsubr
                </CharString>
                <CharString name="Lcaron">
                    0 54 566 -20 99 52 callsubr
230 60 vstem
380 461 -40 callsubr
111 -461 60 callsubr
                </CharString>
                <CharString name="Lcommaaccent">
                    32 callgsubr
101 63 19 callgsubr
137 -67 callsubr
                </CharString>
                <CharString name="Ldot">
                    0 54 215 96 255 52 callsubr
204 79.5 19 callgsubr
343 269 rmoveto
5 96 rlineto
-80 hlineto
-4 -96 rlineto
endchar
                </CharString>
                <CharString name="Lslash">
                    79 callgsubr
491 hmoveto
81 callgsubr
-315 284 hlineto
164 85 -11 45 -153 -80 rlineto
232 -62 -264 vlineto
-86 -45 11 -44 75 39 rlineto
-306 vlineto
endchar
                </CharString>
                <CharString name="M">
                    21 -21 98 80 347 95 hstem
71 57 291 59 vstem
397 620 rmoveto
0 -100 -371 -19 -71 vhcurveto
-4 hlineto
-19 71 -102 371 0 vvcurveto
-82 -620 58 hlineto
-2 525 rlineto
4 hlineto
118 -427 rlineto
52 hlineto
115 427 rlineto
4 hlineto
-2 -525 rlineto
60 620 hlineto
endchar
                </CharString>
                <CharString name="N">
                    18 callsubr
399 hmoveto
-29 callsubr
                </CharString>
                <CharString name="NUL">
                    -107 endchar
                </CharString>
                <CharString name="Nacute">
                    18 callsubr
178 -85 callsubr
221 -721 rmoveto
-29 callsubr
                </CharString>
                <CharString name="Ncaron">
                    18 callsubr
279 -54 callgsubr
122 -691 rmoveto
-29 callsubr
                </CharString>
                <CharString name="Ncommaaccent">
                    24 callsubr
105 63 94 58 hintmask 01111100
399 hmoveto
63 callgsubr
hintmask 10111100
-49 callsubr
75 -788 -100 callgsubr
                </CharString>
                <CharString name="Ntilde">
                    0 106 -85 -21 526 94 82 51 59 51 hstemhm
86 58 262 58 hintmask 01111110
350 702 -89 callgsubr
49 -702 rmoveto
63 callgsubr
hintmask 10111110
-49 callsubr
endchar
                </CharString>
                <CharString name="O">
                    -4 callgsubr
266 -15 -106 callgsubr
                </CharString>
                <CharString name="OE">
                    -31 callsubr
hstem
41 63 171 57 vstem
104 309 rmoveto
175 55 79 116 2 vhcurveto
-510 vlineto
-118 -53 75 179 hvcurveto
401 -255 rmoveto
-173 236 146 48 -146 228 170 54 -205 hlineto
-175 -81 -117 -205 -202 80 -96 174 hvcurveto
206 hlineto
endchar
                </CharString>
                <CharString name="Oacute">
                    -4 callgsubr
182 728 -107 callgsubr
84 -743 -106 callgsubr
                </CharString>
                <CharString name="Obreve">
                    75 callgsubr
73 50 4 callgsubr
275 708 -103 callgsubr
-9 -723 -106 callgsubr
                </CharString>
                <CharString name="Ocircumflex">
                    -4 callgsubr
412 703 -100 callsubr
-9 -839 -106 callgsubr
                </CharString>
                <CharString name="Odieresis">
                    75 callgsubr
75 65 callgsubr
49 63 27.5 -38 callsubr
18 63 hintmask 11110100
419 710 -61 callsubr
hintmask 11111100
-79 callgsubr
hintmask 11110110
126 -725 -106 callgsubr
                </CharString>
                <CharString name="Ograve">
                    -4 callgsubr
370 720 -93 callsubr
-84 -708 -106 callgsubr
                </CharString>
                <CharString name="Ohungarumlaut">
                    -4 callgsubr
137 721 -81 callgsubr
-78 -735 -106 callgsubr
                </CharString>
                <CharString name="Omacron">
                    75 callgsubr
118 53 4 callgsubr
441 806 -19 callsubr
-175 -768 -106 callgsubr
                </CharString>
                <CharString name="Omega">
                    0 50 526 57 hstem
75 58 283 60 vstem
223 5 rmoveto
-62 147 -28 124 95 vvcurveto
129 50 76 92 92 49 -76 -130 -96 -26 -123 -62 -146 vhcurveto
1 -5 rlineto
176 50 -111 hlineto
55 126 27 111 92 vvcurveto
154 1 -70 100 -128 hhcurveto
-131 -73 -101 -155 -91 26 -111 56 -125 hvcurveto
-111 -50 175 hlineto
endchar
                </CharString>
                <CharString name="Oslash">
                    48 callsubr
112 312 -67 callgsubr
                </CharString>
                <CharString name="Oslashacute">
                    48 callsubr
180 728 -107 callgsubr
-68 -416 -67 callgsubr
                </CharString>
                <CharString name="Otilde">
                    75 callgsubr
74 51 59 51 4 callgsubr
355 709 -89 callgsubr
-89 -724 -106 callgsubr
                </CharString>
                <CharString name="P">
                    21 -21 210 58 307 54 -11 -20 hstemhm
106 62 266 62 hintmask 11101100
168 hmoveto
210 vlineto
198 10 130 66 146 vvcurveto
hintmask 11011100
149 -134 78 -256 -41 vhcurveto
-618 vlineto
hintmask 11101100
328 421 rmoveto
-119 -96 -44 -170 10 vhcurveto
301 vlineto
180 26 86 -62 -112 vvcurveto
endchar
                </CharString>
                <CharString name="Q">
                    -14 52 -50 50 544 53 hstemhm
13 callgsubr
hintmask 10111000
449 -128 rmoveto
hintmask 01111000
19 52 -165 63 rlineto
1 vlineto
123 19 76 118 -1 196 rrcurveto
-71 callgsubr
hvcurveto
hintmask 10111000
-189 71 -111 121 -13 vhcurveto
-12 -33 rlineto
44 629 -90 callsubr
                </CharString>
                <CharString name="R">
                    -20 callsubr
hintmask 10011011
443 -10 -66 callgsubr
                </CharString>
                <CharString name="R_p">
                    89 callgsubr
153 50 -25 -21 25 56 callgsubr
26 -21 234.5 44 161.5 49 -9 -20 109 53 81 callsubr
46 54 102 54 55 53 107 52 hintmask 0100100110011111
224 -3 rmoveto
hintmask 0100001110011111
53 8 -77 265 rlineto
33 38 23 60 86 vvcurveto
126 -54 74 -156 -36 vhcurveto
hintmask 0100010110101111
-618 54 238 vlineto
54 3 rlineto
-54 333 rmoveto
74 14 28 -46 -98 vvcurveto
-68 -14 -54 -24 -37 vhcurveto
-64 -3 rlineto
hintmask 0110000110011111
304 -243 rmoveto
-14 -13 2 8 -13 hvcurveto
166 -1 105 -2 91 vhcurveto
19 16 20 15 18 hhcurveto
40 16 -67 -134 -143 -18 -62 -49 hvcurveto
-40 -203 rmoveto
hintmask 0101000110011111
157 vlineto
hintmask 0110000110011111
-3 9 10 -1 9 hhcurveto
84 47 82 197 142 -26 84 -60 -32 -28 -22 -23 -19 hvcurveto
hintmask 1010000101011111
-2 36 -49 -4 rlineto
3 -105 1 -158 -219 vvcurveto
-169 vlineto
endchar
                </CharString>
                <CharString name="Racute">
                    -20 callsubr
hintmask 00111011
171 730 -107 callgsubr
hintmask 10011011
272 -740 -66 callgsubr
                </CharString>
                <CharString name="Rcaron">
                    -20 callsubr
hintmask 00111011
272 700 -101 callsubr
hintmask 10011011
173 -710 -66 callgsubr
                </CharString>
                <CharString name="Rcommaaccent">
                    -39 callgsubr
115 63 65 62 hintmask 1001101110000000
443 -10 rmoveto
hintmask 0011011110000000
-27 callgsubr
hintmask 0101101110000000
-57 callgsubr
89 -555 -100 callgsubr
                </CharString>
                <CharString name="S">
                    70 callgsubr
89 54 -77 callgsubr
endchar
                </CharString>
                <CharString name="Sacute">
                    70 callgsubr
200 723 -107 callgsubr
-111 -669 -77 callgsubr
endchar
                </CharString>
                <CharString name="Scaron">
                    70 callgsubr
302 693 -101 callsubr
-211 -639 -77 callgsubr
endchar
                </CharString>
                <CharString name="Scedilla">
                    -149 -21 164 56 -51 51 -47 -21 584 58 hstemhm
90 63 147 54 58 63 hintmask 11001111
183 -220 rmoveto
37 callgsubr
hintmask 10101111
36 -33 41 -71 44 vhcurveto
160 22 65 76 71 -68 callsubr
hintmask 11001111
-64 -86 -61 -237 21 vhcurveto
-1 -60 45 -3 40 1 37 2 rlinecurve
hintmask 10011111
-7 -12 rlineto
-6 callsubr
endchar
                </CharString>
                <CharString name="Scommaaccent">
                    42 callgsubr
99 63 97 63 vstem
89 54 -77 callgsubr
137 -328 -100 callgsubr
                </CharString>
                <CharString name="T">
                    80 callgsubr
307 566 14 callsubr
endchar
                </CharString>
                <CharString name="Tcaron">
                    80 callgsubr
279 -54 callgsubr
30 -125 14 callsubr
endchar
                </CharString>
                <CharString name="Tcommaaccent">
                    21 -21 566 54 hstemhm
244 63 -58 63 hintmask 11100000
307 566 14 callsubr
hintmask 11010000
-84 -67 callsubr
                </CharString>
                <CharString name="Thorn">
                    21 -21 108 58 300 55 -55 154 hstemhm
106 63 268 62 hintmask 11101100
169 hmoveto
108 vlineto
200 10 130 65 144 vvcurveto
137 -117 75 -213 -22 vhcurveto
hintmask 11011100
103 -63 -620 vlineto
hintmask 11101100
331 64 callsubr
-116 -98 -42 -170 8 vhcurveto
295 vlineto
176 25 92 -60 -110 vvcurveto
endchar
                </CharString>
                <CharString name="U">
                    -4 callsubr
270 -15 -101 callgsubr
                </CharString>
                <CharString name="Uacute">
                    -4 callsubr
179 -85 callsubr
91 -736 -101 callgsubr
                </CharString>
                <CharString name="Ubreve">
                    27 callsubr
101 50 11 callsubr
272 -70 callsubr
-2 -716 -101 callgsubr
                </CharString>
                <CharString name="Ucircumflex">
                    -4 callsubr
409 -52 callgsubr
-2 -832 -101 callgsubr
                </CharString>
                <CharString name="Udieresis">
                    27 callsubr
103 65 callgsubr
82 62 -7.5 -38 callsubr
-12 63 hintmask 11110100
416 38 callsubr
hintmask 11101100
-79 callgsubr
hintmask 11110010
133 -718 -101 callgsubr
                </CharString>
                <CharString name="Ugrave">
                    -4 callsubr
368 -41 callsubr
-78 -701 -101 callgsubr
                </CharString>
                <CharString name="Uhungarumlaut">
                    -4 callsubr
134 714 -81 callgsubr
-71 -728 -101 callgsubr
                </CharString>
                <CharString name="Umacron">
                    27 callsubr
146 53 11 callsubr
438 33 callgsubr
-168 -761 -101 callgsubr
                </CharString>
                <CharString name="Uogonek">
                    -16 56 580 -20 hstem
82 62 47 56 158 63 vstem
363 -210 rmoveto
6 51 89 callsubr
16 25 vvcurveto
26 27 31 92 57 vhcurveto
73 45 29 53 93 vvcurveto
-86 callgsubr
-134 68 -75 123 -3 vhcurveto
-61 -41 -21 -31 -34 85 callgsubr
endchar
                </CharString>
                <CharString name="Uring">
                    27 callsubr
81 51 callsubr
82 62 -1 63 callsubr
1 63 hintmask 11110110
274 890 -93 callgsubr
hintmask 11111001
-4 -864 -101 callgsubr
                </CharString>
                <CharString name="V">
                    -2 57 565 -20 23 -20 hstemhm
45 460 hintmask 10110000
321 -2 rmoveto
hintmask 11010000
66 210 61 205 57 207 rrcurveto
-60 hlineto
-52 -190 -54 -186 -58 -189 rrcurveto
-9 hlineto
hintmask 10110000
-58 189 -55 189 -51 190 -63 -6 rcurveline
57 -206 61 -203 67 -210 rrcurveto
endchar
                </CharString>
                <CharString name="W">
                    10 callsubr
371 hmoveto
-94 callsubr
                </CharString>
                <CharString name="Wacute">
                    10 callsubr
184 -85 callsubr
187 -721 rmoveto
-94 callsubr
                </CharString>
                <CharString name="Wcircumflex">
                    10 callsubr
413 -52 callgsubr
95 -817 rmoveto
-94 callsubr
                </CharString>
                <CharString name="Wdieresis">
                    0 76 544 -20 103 65 callgsubr
59 62 19.5 -38 callsubr
12 59 hintmask 11110100
420 38 callsubr
hintmask 11111110
-79 callgsubr
230 -703 rmoveto
-76 callsubr
hintmask 11110100
-79 callsubr
                </CharString>
                <CharString name="Wgrave">
                    10 callsubr
372 -41 callsubr
19 -686 rmoveto
-94 callsubr
                </CharString>
                <CharString name="X">
                    18 7 callgsubr
617 -20 23 -20 hstemhm
48 457 hintmask 10001100
437 -3 rmoveto
hintmask 00110100
67 6 -189 307 190 310 rlineto
-67 hlineto
-158 -267 rlineto
hintmask 01001100
-165 270 -67 -6 190 -308 -190 -309 rlineto
66 hlineto
160 266 rlineto
endchar
                </CharString>
                <CharString name="Y">
                    6 callsubr
307 hmoveto
-60 callgsubr
                </CharString>
                <CharString name="Yacute">
                    6 callsubr
183 722 -107 callgsubr
124 -722 rmoveto
-60 callgsubr
                </CharString>
                <CharString name="Ycircumflex">
                    6 callsubr
412 697 -100 callsubr
32 -818 rmoveto
-60 callgsubr
                </CharString>
                <CharString name="Ydieresis">
                    21 -21 620 -20 21 -20 103 65 callgsubr
139.5 -14 callgsubr
42 63 51 62 hintmask 10111110
419 704 -87 callsubr
167 -704 rmoveto
208 vlineto
hintmask 11011110
-5 callgsubr
hintmask 10111110
-21 callsubr
                </CharString>
                <CharString name="Ygrave">
                    6 callsubr
371 714 -93 callsubr
-44 -687 rmoveto
-60 callgsubr
                </CharString>
                <CharString name="Z">
                    46 callgsubr
478 hmoveto
-45 callgsubr
                </CharString>
                <CharString name="Zacute">
                    46 callgsubr
191 -85 callsubr
287 -721 rmoveto
-45 callgsubr
                </CharString>
                <CharString name="Zcaron">
                    46 callgsubr
292 -54 callgsubr
188 -691 rmoveto
-45 callgsubr
                </CharString>
                <CharString name="Zdotaccent">
                    0 55 510 55 83 84 callgsubr
255.5 63 vstem
316 -10 callsubr
224 -703 rmoveto
-45 callgsubr
                </CharString>
                <CharString name="a">
                    -22 callgsubr
244 38 -99 callgsubr
                </CharString>
                <CharString name="aacute">
                    -22 callgsubr
180 -28 callsubr
64 -549 -99 callgsubr
                </CharString>
                <CharString name="abreve">
                    -57 callsubr
74 50 26 callgsubr
hintmask 10011111
272 567 -103 callgsubr
-28 -529 -55 callsubr
                </CharString>
                <CharString name="acircumflex">
                    -22 callgsubr
409 562 -100 callsubr
-28 -645 -99 callgsubr
                </CharString>
                <CharString name="acute">
                    557 206 hstem
175 237 vstem
175 -59 callsubr
endchar
                </CharString>
                <CharString name="adieresis">
                    -57 callsubr
76 132 83 callsubr
4.5 -38 callsubr
-19 60 hintmask 1001110110000000
416 569 -87 callsubr
107 -531 rmoveto
hintmask 1001111001000000
-74 callgsubr
hintmask 1001110110000000
2 callsubr
hintmask 0101110101000000
42 callsubr
hintmask 0011111001000000
-102 callsubr
hintmask 1001111001000000
-43 callgsubr
hintmask 0101110101000000
-23 callgsubr
                </CharString>
                <CharString name="ae">
                    13 callsubr
492 -6 -74 callsubr
                </CharString>
                <CharString name="aeacute">
                    13 callsubr
179 -59 callsubr
313 -591 -74 callsubr
                </CharString>
                <CharString name="agrave">
                    -22 callgsubr
368 579 -93 callsubr
-104 -514 -99 callgsubr
                </CharString>
                <CharString name="amacron">
                    -57 callsubr
119 53 26 callgsubr
hintmask 10011111
438 665 -19 callsubr
-194 -574 -55 callsubr
                </CharString>
                <CharString name="ampersand">
                    -12 52 533 58 hstemhm
43 59 12 58 hintmask 11010000
511 27 rmoveto
-42 50 -39 44 -34 38 35 61 31 81 25 96 -55 7 rcurveline
-17 -79 -24 -72 -27 -58 rrcurveto
-132 149 -60 63 60 vvcurveto
59 47 55 177 -8 vhcurveto
-4 58 rlineto
-212 4 -66 -91 -83 vvcurveto
-44 21 -41 42 -54 vhcurveto
hintmask 11110000
-90 -57 -44 -66 -72 vvcurveto
-77 49 -62 89 63 65 36 82 54 vhcurveto
31 -35 33 -40 36 -44 rrcurveto
-270 53 rmoveto
-60 -31 42 58 50 32 55 68 47 hvcurveto
34 -41 43 -48 53 -61 rrcurveto
-69 -43 -49 -33 -47 hhcurveto
endchar
                </CharString>
                <CharString name="aogonek">
                    -12 50 -29 -21 34 -21 230 42 166 54 83 callsubr
138 56 72 60 hintmask 10011111
442 -208 71 callgsubr
16 25 vvcurveto
hintmask 00111111
24 30 77 callgsubr
-102 callgsubr
hintmask 10011111
-78 58 -47 83 81 65 51 51 42 vhcurveto
hintmask 01011111
2 -22 3 -37 2 -21 rrcurveto
-101 -53 -37 -39 -39 vvcurveto
hintmask 10011111
-45 46 -30 126 -12 vhcurveto
-206 246 rmoveto
-62 -42 -41 callgsubr
-46 0 -23 1 -29 vhcurveto
-50 -42 -62 -40 -59 hhcurveto
endchar
                </CharString>
                <CharString name="approxequal">
                    103 51 65 51 41 52 64 51 hstem
59 429 vstem
364 311 rmoveto
53 34 48 97 37 hvcurveto
-40 16 rlineto
-62 -26 -25 -47 -32 -52 -46 115 86 callsubr
39 -16 rlineto
64 28 83 callgsubr
-208 vmoveto
53 34 48 97 37 hvcurveto
-39 16 rlineto
-62 -27 -24 -48 -33 -52 -46 116 86 callsubr
40 -16 rlineto
64 27 83 callgsubr
endchar
                </CharString>
                <CharString name="aring">
                    20 callsubr
hintmask 1001111111000000
274 756 -75 callgsubr
                </CharString>
                <CharString name="aringacute">
                    20 callsubr
hintmask 1001111100100000
180 831 -107 callgsubr
hintmask 1001111111000000
94 -75 -75 callgsubr
                </CharString>
                <CharString name="asciicircum">
                    492 -20 hstem
60 433 vstem
447 164 rmoveto
46 33 -214 295 -15 -3 -204 -293 43 -32 169 245 rlineto
endchar
                </CharString>
                <CharString name="asciitilde">
                    200 57 96 57 hstem
40 470 vstem
374 200 rmoveto
58 39 64 119 39 hvcurveto
-44 17 rlineto
-81 -28 -26 -62 -36 -56 -61 153 -82 hhcurveto
-57 -42 -66 -117 -38 hvcurveto
44 -17 rlineto
81 27 27 62 35 57 62 -153 82 hhcurveto
endchar
                </CharString>
                <CharString name="asterisk">
                    296 394 hstem
277 41.5 vstem
368 296 rmoveto
33 20 -65 142 150 52 -9 36 -157 -17 -3 158 -40 3 -32 -155 -149 46 -16 -36 138 -78 -89 -127 29 -25 115 104 rlineto
endchar
                </CharString>
                <CharString name="asterisk.alt">
                    636 -20 hstemhm
250 28.5 -5.5 28 hintmask 10100000
301 556 rmoveto
34 128 -61 10 -2 -134 rlineto
-44 -17 rmoveto
-95 93 -39 -47 115 -71 rlineto
140 -20 rmoveto
129 35 -22 58 -117 -64 rlineto
-137 -55 rmoveto
-128 -36 22 -56 117 63 rlineto
111 -15 rmoveto
95 -94 38 47 -113 71 rlineto
hintmask 11000000
-94 -37 rmoveto
-34 -130 61 -9 3 134 rlineto
endchar
                </CharString>
                <CharString name="at">
                    -157 51 165 50 318 50 154 50 hstem
58 53 108 56 152 55 vstem
446 -152 rmoveto
50 vlineto
-268 -32 -67 146 242 vvcurveto
246 86 131 115 74 35 -53 -101 5 vhcurveto
-125 11 -82 -83 -157 vvcurveto
-117 49 -72 67 42 27 19 32 28 vhcurveto
1 -15 2 -17 1 -11 51 6 rcurveline
-3 99 -2 86 189 vvcurveto
151 -50 83 -113 -151 -110 -169 -265 -261 90 -177 298 39 vhcurveto
-93 261 rmoveto
-51 -27 53 98 118 37 70 115 -26 hvcurveto
-275 vlineto
-21 -20 -24 -17 -30 hhcurveto
endchar
                </CharString>
                <CharString name="atilde">
                    -57 callsubr
75 51 59 51 26 callgsubr
hintmask 1001111110000000
352 568 -89 callgsubr
-108 -530 -73 callgsubr
hintmask 0101111110000000
42 callsubr
hintmask 0011111110000000
-102 callsubr
hintmask 1001111110000000
-43 callgsubr
hintmask 0101111110000000
-23 callgsubr
                </CharString>
                <CharString name="b">
                    -11 53 402 51 203 47 callgsubr
98 61 271 60 hintmask 11011100
237 -11 rmoveto
131 122 104 170 142 -79 90 -105 -60 -49 -25 -31 -38 hvcurveto
264 vlineto
hintmask 11101100
53 callgsubr
-685 vlineto
hintmask 11011100
-16 43 48 -8 48 hhcurveto
21 53 rmoveto
-31 -33 6 12 -35 hvcurveto
338 vlineto
28 35 45 18 45 86 callgsubr
-75 -73 -97 hvcurveto
endchar
                </CharString>
                <CharString name="backslash">
                    -157 -21 hstem
13 522 vstem
65 716 rmoveto
-52 -23 466 -871 56 16 rlineto
endchar
                </CharString>
                <CharString name="bar">
                    700 -20 hstem
249 56 vstem
249 700 rmoveto
-881 56 886 vlineto
endchar
                </CharString>
                <CharString name="braceleft">
                    235 56 callsubr
-207 -53 callsubr
                </CharString>
                <CharString name="braceleft.cap">
                    283 56 callsubr
-159 -53 callsubr
                </CharString>
                <CharString name="braceright">
                    236 59 callgsubr
-206 -53 callgsubr
                </CharString>
                <CharString name="braceright.cap">
                    283 59 callgsubr
-159 -53 callgsubr
                </CharString>
                <CharString name="bracketleft">
                    -178 73 callsubr
-178 45 callgsubr
                </CharString>
                <CharString name="bracketleft.cap">
                    -130 73 callsubr
-130 45 callgsubr
                </CharString>
                <CharString name="bracketright">
                    -178 79 callsubr
-127 45 callsubr
                </CharString>
                <CharString name="bracketright.cap">
                    -130 79 callsubr
-79 45 callsubr
                </CharString>
                <CharString name="breve">
                    565 50 hstem
92 367 vstem
271 565 -103 callgsubr
endchar
                </CharString>
                <CharString name="bullet">
                    181 234 hstem
155 240 vstem
395 299 rmoveto
67 -50 49 -69 -68 -53 -46 -71 -68 51 -49 69 67 53 46 72 vhcurveto
endchar
                </CharString>
                <CharString name="bullet.alt">
                    197 199 hstem
178 193 vstem
370 197 rmoveto
2 199 rlineto
-193 hlineto
-2 -199 rlineto
endchar
                </CharString>
                <CharString name="c">
                    76 callsubr
hstem
85 60 vstem
85 235 -69 callsubr
                </CharString>
                <CharString name="cacute">
                    76 callsubr
hstem
85 60 vstem
209 -59 callsubr
-124 -350 -69 callsubr
                </CharString>
                <CharString name="caron">
                    617 -20 103 -20 hstem
102 345 90 callgsubr
555 -101 callsubr
endchar
                </CharString>
                <CharString name="caron.alt">
                    553 249 hstem
241 60 vstem
209 564 -40 callsubr
endchar
                </CharString>
                <CharString name="ccaron">
                    76 callsubr
125 -20 103 -20 hstem
85 60 vstem
311 555 -101 callsubr
-224 -320 -69 callsubr
                </CharString>
                <CharString name="ccedilla">
                    -143 -21 160 52 -39 -21 36 -21 431 58 hstemhm
85 60 196 54 hintmask 11001110
395 -116 rmoveto
hintmask 10011110
36 -32 39 -68 44 vhcurveto
hintmask 11001110
45 -8 53 -3 64 4 8 52 rcurveline
-62 callgsubr
hintmask 10101110
-105 42 -85 129 -34 vhcurveto
-12 -23 rlineto
-6 callsubr
5 -50 rlineto
hintmask 11001110
37 callgsubr
endchar
                </CharString>
                <CharString name="cdotaccent">
                    76 callsubr
75 84 callgsubr
85 60 129.5 63 vstem
335 567 -50 callsubr
-188 -332 -69 callsubr
                </CharString>
                <CharString name="cedilla">
                    15 -21 hstem
332 54 vstem
235 -6 rmoveto
-6 callsubr
5 -50 rlineto
37 callgsubr
41 -42 46 -91 51 vhcurveto
endchar
                </CharString>
                <CharString name="cent">
                    37 52 335 57 139 -20 hstem
81 57 vstem
138 267 rmoveto
71 37 62 134 19 vhcurveto
-39 -304 rlineto
-97 30 -35 53 69 vvcurveto
303 -230 rmoveto
6 52 -52 2 -44 5 -37 8 rlinecurve
40 320 32 2 36 0 41 -2 rlinecurve
7 57 -39 1 -35 -1 -32 -2 rlinecurve
19 141 rlineto
-54 hlineto
-18 -147 rlineto
-177 -29 -53 -90 -94 vvcurveto
-88 46 -74 131 -36 vhcurveto
-19 -147 rlineto
54 hlineto
16 135 38 -7 44 -4 50 -2 rlinecurve
endchar
                </CharString>
                <CharString name="check.1">
                    -1 -21 hstem
78 425 vstem
503 658 rmoveto
-63 22 -76 -187 -64 -210 -49 -225 rlinecurve
-3 hlineto
-117 287 -53 -24 147 -348 54 5 58 244 75 229 91 207 rlinecurve
endchar
                </CharString>
                <CharString name="check.2">
                    10 -21 27 -21 31 -21 492 -20 hstemhm
93 392 hintmask 01011000
364 -5 rmoveto
59 14 -137 263 199 386 -61 24 -169 -363 -90 178 -56 -21 112 -210 rlineto
hintmask 00111000
-128 -261 rlineto
hintmask 10011000
40 -16 119 232 rlineto
endchar
                </CharString>
                <CharString name="circumflex">
                    560 184 hstem
102 345 vstem
409 560 -100 callsubr
endchar
                </CharString>
                <CharString name="colon">
                    0 100 235 101 hstemhm
223.5 97 -89 77 callsubr
hintmask 11010000
327 74 callgsubr
hintmask 11100000
87 -335 rmoveto
5 100 rlineto
-98 hlineto
-3 -100 rlineto
endchar
                </CharString>
                <CharString name="colon.alt">
                    92 100 236 100 hstemhm
228.5 96 -93 77 callsubr
hintmask 11010000
327 428 rmoveto
2 100 rlineto
-97 hlineto
-1 -100 rlineto
hintmask 11100000
93 -336 rmoveto
1 100 rlineto
-96 hlineto
-1 -100 rlineto
endchar
                </CharString>
                <CharString name="colonmonetary">
                    23 53 465 56 hstemhm
70 54 72.5 12 callsubr
8 48.5 23.5 45.5 13 46 hintmask 11110100
336 94 rmoveto
-31 6 -27 8 -24 10 35 393 rcurveline
25 8 29 6 32 5 rrcurveto
-251 -221 rmoveto
83 33 64 90 40 vhcurveto
-32 -360 rlineto
-64 38 -27 56 79 vvcurveto
194 -383 rmoveto
46 hlineto
9 107 rlineto
hintmask 11111110
29 -5 32 -3 34 -2 11 53 rcurveline
-38 3 -35 3 -31 5 39 448 rcurveline
27 3 28 2 31 1 -4 56 rcurveline
-26 -1 -24 -2 -23 -2 9 101 rcurveline
-46 hlineto
-9 -108 -30 -4 -28 -7 -25 -7 rlinecurve
11 126 rlineto
-48 hlineto
-12 -143 rlineto
-126 -53 -49 -91 -106 vvcurveto
-102 41 -73 93 -45 vhcurveto
hintmask 11110100
-15 -154 rlineto
48 hlineto
12 135 24 -8 26 -7 29 -6 rlinecurve
endchar
                </CharString>
                <CharString name="comma">
                    -194 299 hstem
255 70 vstem
197 -183 rmoveto
31 -11 86 83 31 101 -32 115 rlinecurve
-92 -6 52 -114 -5 -87 -71 -81 rlinecurve
endchar
                </CharString>
                <CharString name="commaaccent">
                    -272 203 hstem
245 63 vstem
219 -67 callsubr
                </CharString>
                <CharString name="commaaccent.rot">
                    564 203 hstem
233 64 vstem
323 757 44 callgsubr
endchar
                </CharString>
                <CharString name="copyright">
                    7 37 94 44 259 48 87 37 hstem
46 40 92 47 239 40 vstem
504 314 rmoveto
187 -93 112 -127 -131 -107 -123 -184 -189 100 -110 132 127 99 113 194 vhcurveto
-418 -5 rmoveto
161 85 106 111 105 77 -102 -163 -169 -79 -98 -104 -110 -85 98 167 vhcurveto
264 -127 rmoveto
-99 -5 -26 48 88 vvcurveto
74 16 50 107 4 vhcurveto
-5 48 rlineto
-122 -10 -43 -78 -92 vvcurveto
-106 41 -74 126 9 vhcurveto
endchar
                </CharString>
                <CharString name="d">
                    35 callsubr
hintmask 1001001110000000
268 40 14 callgsubr
hintmask 0101001110000000
131 -42 rmoveto
hintmask 0011001110000000
36 callsubr
223 vlineto
hintmask 1000110110000000
53 callgsubr
-208 vlineto
hintmask 1001001110000000
21 callsubr
                </CharString>
                <CharString name="dagger">
                    477.5 49 -45 49 hstemhm
246.5 52 -51.5 60 hintmask 10100000
292 121 rmoveto
13 358 181 -3 3 49 rlineto
hintmask 10010000
82 callsubr
hintmask 01010000
-166 vlineto
-176 3 -3 -49 rlineto
hintmask 01100000
179 -3 -1 -373 9 -7 rlineto
endchar
                </CharString>
                <CharString name="daggerdbl">
                    278.5 48 -45 49 148 48 -44 48 hstemhm
246 50 -49.5 56.5 -56 60 hintmask 10101000
293 70 rmoveto
6 210 181 -3 3 48 rlineto
hintmask 10100100
-182 3 4 152 181 -3 3 48 rlineto
hintmask 10100010
82 callsubr
hintmask 10010010
-166 vlineto
-176 3 -3 -48 rlineto
hintmask 01010100
179 -3 -1 -152 -182 3 -2 -49 rlineto
hintmask 01101000
184 -3 rlineto
-224 vlineto
10 -6 rlineto
endchar
                </CharString>
                <CharString name="dcaron">
                    35 callsubr
99 60 hintmask 1001001111000000
517 564 -40 callsubr
-249 -524 14 callgsubr
hintmask 0101001111000000
131 -42 rmoveto
hintmask 0011001111000000
36 callsubr
223 vlineto
hintmask 1000110111000000
53 callgsubr
-208 vlineto
hintmask 1001001111000000
21 callsubr
                </CharString>
                <CharString name="dcroat">
                    -12 52 -21 72 callsubr
440 52 -5 -20 115 42 -42 118 -5 -20 hstemhm
60 61 268 61 hintmask 1001010111000000
268 40 55 callgsubr
73 101 29 28 -5 -9 19 callsubr
hintmask 0101010111000000
131 -42 rmoveto
hintmask 0011010111000000
36 callsubr
103 74 43 -74 vlineto
hintmask 1001001011000000
76 vlineto
hintmask 1000110111000000
53 callgsubr
-71 -138 -42 138 -95 vlineto
hintmask 1001010111000000
40 callgsubr
-176 30 callsubr
                </CharString>
                <CharString name="degree">
                    321 47 256 47 hstem
106 52 234 52 vstem
444 500 rmoveto
106 -71 65 -92 -92 -83 -70 -109 -105 71 -66 92 92 83 70 109 vhcurveto
-52 1 rmoveto
-81 -1 -51 -52 -66 hhcurveto
-70 -48 55 72 2 hvcurveto
78 1 50 51 67 hhcurveto
70 48 -54 -69 -2 hvcurveto
endchar
                </CharString>
                <CharString name="dieresis">
                    567 84 callgsubr
136.5 -38 callsubr
vstem
416 567 -87 callsubr
endchar
                </CharString>
                <CharString name="divide">
                    69 82 113 52 113 81 hstem
237.5 74 vstem
311 429 rmoveto
1 81 rlineto
-74 hlineto
-1 -81 rlineto
249 -113 rmoveto
-422 -52 421 hlineto
-174 -195 rmoveto
1 82 rlineto
-74 hlineto
-1 -82 rlineto
endchar
                </CharString>
                <CharString name="dollar">
                    24 52 465 53 hstem
100 62 242 62 vstem
162 470 rmoveto
39 39 30 103 2 vhcurveto
-33 -185 rlineto
-59 37 -50 36 41 vvcurveto
242 -309 rmoveto
-43 -43 -36 -102 -5 vhcurveto
36 199 rlineto
59 -37 50 -36 -42 vvcurveto
-168 -248 rmoveto
19 111 rlineto
148 12 63 64 65 vvcurveto
69 -80 52 -78 47 vhcurveto
38 208 32 -2 37 -4 42 -6 rlinecurve
6 58 -37 5 -33 2 -31 1 rlinecurve
22 111 rlineto
-55 hlineto
-20 -112 rlineto
-149 -8 -60 -60 -64 vvcurveto
-67 79 -50 78 -46 vhcurveto
-40 -223 -36 1 -42 4 -48 8 rlinecurve
-11 -58 rlineto
-6 45 40 -3 36 hhcurveto
-20 -109 rlineto
endchar
                </CharString>
                <CharString name="dotaccent">
                    567 84 callgsubr
242.5 63 vstem
303 567 -50 callsubr
endchar
                </CharString>
                <CharString name="dotlessi">
                    24 callgsubr
511 hmoveto
-72 callgsubr
                </CharString>
                <CharString name="e">
                    -2 callsubr
450 -11 -107 callsubr
                </CharString>
                <CharString name="eacute">
                    -2 callsubr
190 592 -107 callgsubr
260 -603 -107 callsubr
                </CharString>
                <CharString name="ebreve">
                    -15 callsubr
76 50 12 callgsubr
283 572 -103 callgsubr
167 -583 -107 callsubr
                </CharString>
                <CharString name="ecaron">
                    -15 callsubr
128 -20 12 callgsubr
291 562 -101 callsubr
161 -573 -107 callsubr
                </CharString>
                <CharString name="ecircumflex">
                    -2 callsubr
420 567 -100 callsubr
167 -699 -107 callsubr
                </CharString>
                <CharString name="edieresis">
                    -15 callsubr
78 65 callgsubr
71 60 15.5 -38 callsubr
-8 59 hintmask 11110110
426 574 -87 callsubr
hintmask 11111101
303 -585 -107 callsubr
                </CharString>
                <CharString name="edotaccent">
                    -15 callsubr
78 132 90 callsubr
123.5 63 101.5 59 vstem
315 574 -50 callsubr
197 -585 -107 callsubr
                </CharString>
                <CharString name="egrave">
                    -2 callsubr
378 584 -93 callsubr
92 -568 -107 callsubr
                </CharString>
                <CharString name="eight">
                    -12 50 544 50 hstemhm
77 60 -49 59 257 59 -49 60 hintmask 11100100
264 -12 rmoveto
127 83 72 91 79 -75 47 -78 43 hvcurveto
hintmask 11011000
87 42 55 51 77 vvcurveto
86 -78 56 -102 -125 -70 -79 -77 -74 64 -47 71 -41 vhcurveto
hintmask 11100100
-89 -43 -57 -60 -77 vvcurveto
-88 78 -58 109 vhcurveto
hintmask 11011000
-117 497 rmoveto
50 44 47 85 82 46 -44 -60 -58 -45 -44 -74 -36 vhcurveto
-72 40 -66 40 65 vvcurveto
hintmask 11100100
127 -447 rmoveto
-88 -49 46 65 58 44 50 78 37 hvcurveto
79 -44 76 -41 -67 vvcurveto
-60 -55 -44 -85 vhcurveto
endchar
                </CharString>
                <CharString name="eight.den">
                    17 callsubr
-12 callgsubr
hintmask 10111010
267 -220 rmoveto
hintmask 10111001
-35 callsubr
hintmask 10110110
-59 callgsubr
vhcurveto
hintmask 11010110
8 callsubr
hintmask 10111010
-13 callsubr
hintmask 11010110
-86 callsubr
hintmask 10111001
-89 callsubr
                </CharString>
                <CharString name="eight.inf">
                    -160 5 callsubr
-160 -91 callsubr
                </CharString>
                <CharString name="eight.num">
                    415 40 168 -20 24 -20 36 -20 165 40 -12 callgsubr
hintmask 1001110100000000
267 415 rmoveto
hintmask 1010110010000000
-35 callsubr
hintmask 1100101100000000
-22 callsubr
hintmask 1100110100000000
9 callsubr
hintmask 1001110100000000
26 callsubr
hintmask 1001101100000000
-86 callsubr
hintmask 1010110010000000
-89 callsubr
                </CharString>
                <CharString name="eight.small">
                    -10 5 callsubr
-10 -91 callsubr
                </CharString>
                <CharString name="eight.sup">
                    315 5 callsubr
315 -91 callsubr
                </CharString>
                <CharString name="ellipsis">
                    0 101 hstem
47.5 88 95 88 95 88 cntrmask 01110000
499 54 callgsubr
-95 54 callgsubr
-95 54 callgsubr
endchar
                </CharString>
                <CharString name="emacron">
                    -15 callsubr
121 53 12 callgsubr
448 670 -19 callsubr
2 -628 -107 callsubr
                </CharString>
                <CharString name="emdash">
                    266 47 hstem
56 442 vstem
498 313 rmoveto
-442 -47 437 hlineto
endchar
                </CharString>
                <CharString name="endash">
                    266 47 hstem
77 401 vstem
478 313 rmoveto
-401 -47 396 hlineto
endchar
                </CharString>
                <CharString name="eogonek">
                    -209 50 155 46 -30 -21 240 40 174 51 hstemhm
71 60 125 56 107 59 hintmask 11011111
428 -209 71 callgsubr
18 24 vvcurveto
hintmask 10111111
23 30 30 108 45 vhcurveto
hintmask 11011111
8 51 -96 callsubr
-147 75 -84 238 -9 hvcurveto
-94 -44 -34 -38 -36 vvcurveto
-43 45 -32 127 -12 vhcurveto
-144 654 -80 callsubr
                </CharString>
                <CharString name="equal">
                    73 callgsubr
468 431 rmoveto
-386 -52 385 hlineto
1 -171 rmoveto
-386 -52 385 hlineto
endchar
                </CharString>
                <CharString name="eth">
                    -12 51 371 51 160 -20 hstem
61 59 308 58 vstem
265 -12 rmoveto
119 102 88 169 130 -51 114 -109 103 hvcurveto
102 55 -16 38 -118 -64 -35 29 -39 28 -45 27 rlinecurve
-37 -40 39 -23 35 -24 30 -25 rlinecurve
-116 -63 17 -38 133 72 38 -35 30 -36 24 -37 rlinecurve
-152 28 -155 -84 -182 vvcurveto
-143 91 -87 113 vhcurveto
8 51 rmoveto
-90 -63 74 112 139 100 89 181 -63 hvcurveto
18 -48 9 -50 -51 vvcurveto
-130 -62 -72 -93 vhcurveto
endchar
                </CharString>
                <CharString name="exclam">
                    0 96 hstemhm
227 93.5 -61.5 40 hintmask 10100000
299 226 rmoveto
3 116 16 212 6 122 rrcurveto
-77 hlineto
2 -122 10 -212 -116 vvcurveto
hintmask 11000000
60 -226 rmoveto
3 96 rlineto
-94 hlineto
-2 -96 rlineto
endchar
                </CharString>
                <CharString name="exclamdown">
                    524 96 hstemhm
230 93.5 -72.5 40 hintmask 11000000
231 620 rmoveto
-2 -96 rlineto
94 hlineto
1 96 rlineto
hintmask 10100000
-73 -226 rmoveto
-3 -116 -16 -212 -6 -121 rrcurveto
78 hlineto
-3 121 -10 212 116 vvcurveto
endchar
                </CharString>
                <CharString name="f">
                    0 46 386 47 165 59 hstem
224 60 vstem
472 46 rmoveto
-188 386 198 47 -198 8 hlineto
114 31 33 198 10 vhcurveto
-5 59 -218 -11 -65 -83 -1 -130 rlinecurve
-140 hlineto
-6 -47 rlineto
146 -386 -140 -46 383 hlineto
endchar
                </CharString>
                <CharString name="five">
                    10 -21 577 54 hstem
118 54.5 237.5 57 vstem
467 203 rmoveto
81 -71 69 -230 21 vhcurveto
13 192 rlineto
263 hlineto
81 callgsubr
-320 hlineto
-20 -290 rlineto
230 -15 72 -52 -62 vvcurveto
-81 -84 -52 -232 -22 vhcurveto
4 -57 rlineto
255 21 114 84 109 vvcurveto
endchar
                </CharString>
                <CharString name="five.den">
                    -220 -39 callsubr
-82 -104 callgsubr
                </CharString>
                <CharString name="five.inf">
                    -160 -39 callsubr
-22 -104 callgsubr
                </CharString>
                <CharString name="five.num">
                    415 47 166 37 110 45 hstem
158.5 44.5 166 48 vstem
-20 callgsubr
endchar
                </CharString>
                <CharString name="five.small">
                    -10 -39 callsubr
128 -104 callgsubr
                </CharString>
                <CharString name="five.sup">
                    315 -39 callsubr
453 -104 callgsubr
                </CharString>
                <CharString name="fiveeighths">
                    67 callgsubr
89 -18 callgsubr
9 callgsubr
-28.5 -43 callsubr
163 49 -46 48 -47 52 hintmask 1011111100101000
-32 callgsubr
hintmask 1011111110000100
205 -546 rmoveto
-35 callsubr
hintmask 1011111101010000
-59 callgsubr
vhcurveto
hintmask 1101111101001000
8 callsubr
hintmask 1011111110001000
9 callsubr
hintmask 1011111110000100
26 callsubr
hintmask 1101111101010000
-86 callsubr
hintmask 1011111110000100
-89 callsubr
                </CharString>
                <CharString name="fivesixths">
                    -219 43 168 39 252 43 89 -18 callgsubr
hstemhm
127 48 -16.5 -43 callsubr
166 48 -40 48 hintmask 1111110110000000
-32 callgsubr
hintmask 1110011001000000
213 -545 -104 callsubr
                </CharString>
                <CharString name="four">
                    0 190 -54 54 433 47 callgsubr
88 48 236 57 hintmask 01011100
502 136 rmoveto
81 callgsubr
-79 231 hlineto
-57 -6 rlineto
-225 -236 vlineto
hintmask 01101100
6 75 52 234 29 124 rrcurveto
hintmask 01011100
-66 5 -46 -187 -25 -193 2 -112 rlinecurve
284 hlineto
hintmask 10011100
-136 57 vlineto
hintmask 01011100
136 vlineto
endchar
                </CharString>
                <CharString name="four.den">
                    -125 1 callgsubr
-126 -96 callgsubr
                </CharString>
                <CharString name="four.inf">
                    -65 1 callgsubr
-66 -96 callgsubr
                </CharString>
                <CharString name="four.num">
                    510 1 callgsubr
509 -96 callgsubr
                </CharString>
                <CharString name="four.small">
                    0 128 -43 43 hstemhm
3 callgsubr
hintmask 01110000
443 84 -95 callgsubr
hintmask 10110000
34 callsubr
hintmask 01110000
-1 85 rlineto
endchar
                </CharString>
                <CharString name="four.sup">
                    410 1 callgsubr
409 -96 callgsubr
                </CharString>
                <CharString name="fourfifths">
                    40 callsubr
184 43 hstemhm
136 43 -20.5 -43 callsubr
138.5 47 -19.5 48 hintmask 1111101100000000
443 509 -58 callgsubr
hintmask 1111110100000000
-83 callgsubr
34 callsubr
-1 85 rlineto
-326 -227 -44 callgsubr
hintmask 1111101010000000
-82 callsubr
                </CharString>
                <CharString name="fraction">
                    -160 912 hstem
42 459 vstem
93 -160 rmoveto
408 889 -52 23 -407 -890 rlineto
endchar
                </CharString>
                <CharString name="fraction.afrc">
                    283 43 hstem
62 426 vstem
62 283 -44 callgsubr
endchar
                </CharString>
                <CharString name="g">
                    17 callgsubr
hstemhm
62 61 273 61 hintmask 01111100
128 -171 -66 callsubr
hintmask 10111100
-64 callgsubr
                </CharString>
                <CharString name="gbreve">
                    17 callgsubr
76 50 hstemhm
62 61 273 61 hintmask 01111110
284 571 -103 callgsubr
-156 -742 -66 callsubr
hintmask 10111110
-64 callgsubr
                </CharString>
                <CharString name="gcommaaccent">
                    17 callgsubr
hstemhm
62 61 119 64 90 61 hintmask 01111110
332 763 44 callgsubr
-204 -934 -66 callsubr
hintmask 10111110
-64 callgsubr
                </CharString>
                <CharString name="gdotaccent">
                    17 callgsubr
78 65 callgsubr
62 61 132.5 63 77.5 61 hintmask 01111111
316 573 -50 callsubr
-126 -744 -66 callsubr
hintmask 10111111
-64 callgsubr
                </CharString>
                <CharString name="germandbls">
                    -5 53 -27 -21 650 53 hstemhm
93 60 110 60 50 61 16 59 hintmask 10111010
323 354 rmoveto
hintmask 01111110
59 111 47 112 vvcurveto
64 -44 67 -100 -127 -70 -100 -140 vhcurveto
-463 60 477 vlineto
111 41 62 83 66 30 -44 -46 vhcurveto
-84 -110 -52 -77 vvcurveto
hintmask 10111010
-107 187 -34 -80 vvcurveto
-48 -53 -43 -132 17 vhcurveto
-3 -57 rlineto
183 -13 64 76 73 112 -186 37 74 vvcurveto
endchar
                </CharString>
                <CharString name="grave">
                    550 207 hstem
143 237 vstem
380 577 -93 callsubr
endchar
                </CharString>
                <CharString name="greater">
                    1 -21 hstem
403 57 vstem
126 -20 rmoveto
334 283 rlineto
54 vlineto
-327 278 -36 -43 306 -258 rlineto
-8 vlineto
-312 -264 rlineto
endchar
                </CharString>
                <CharString name="greaterequal">
                    20 52 hstem
399 62 vstem
399 350 rmoveto
-8 vlineto
-300 -166 22 -48 341 189 -2 52 -334 215 -26 -46 rlineto
-20 -466 rmoveto
-52 391 52 vlineto
endchar
                </CharString>
                <CharString name="guillemotleft">
                    6 -21 513 -20 50 callgsubr
-15 -10 callgsubr
                </CharString>
                <CharString name="guillemotleft.cap">
                    52 513 50 callgsubr
52 -10 callgsubr
                </CharString>
                <CharString name="guillemotright">
                    6 -21 513 -20 59 callsubr
-15 -14 callsubr
                </CharString>
                <CharString name="guillemotright.cap">
                    52 513 59 callsubr
52 -14 callsubr
                </CharString>
                <CharString name="guilsinglleft">
                    6 -21 515 -20 hstem
132 47 vstem
379 -15 36 callgsubr
                </CharString>
                <CharString name="guilsinglleft.cap">
                    52 515 hstem
132 47 vstem
379 52 36 callgsubr
                </CharString>
                <CharString name="guilsinglright">
                    6 -21 515 -20 hstem
372 47 vstem
167 -15 28 callsubr
                </CharString>
                <CharString name="guilsinglright.cap">
                    52 515 hstem
372 47 vstem
167 52 28 callsubr
                </CharString>
                <CharString name="h">
                    21 -21 443 52 203 47 callgsubr
96 60 248 60 hintmask 11011100
294 443 -45 callsubr
-66 -53 -28 -31 -41 vhcurveto
267 vlineto
hintmask 11101100
-60 -5 rlineto
-698 60 396 vlineto
hintmask 11011100
87 callsubr
                </CharString>
                <CharString name="hbar">
                    21 -21 443 51 90 42 -42 119 -5 -20 hstemhm
95 61 248 60 hintmask 11101110
294 443 -31 callgsubr
118 -58 49 -90 -66 -53 -28 -31 -41 vhcurveto
149 138 42 -138 vlineto
hintmask 11010110
77 vlineto
hintmask 11101110
53 callgsubr
-72 -74 -43 74 -583 61 396 vlineto
87 callsubr
                </CharString>
                <CharString name="hcoslug">
                    -100 75 4 9 -8 10 -10 14 -4 11 -10 10 -9 7 0 12 -11 11 -7 15 -15 26 -25 26 -15 8 -8 15 -12 12 0 14 -9 10 -10 19 -9 11 2 8 -7 32 71.5 22.5 hstemhm
50 64 10 16 -3 8 5 40 -35 12 -1 12 14 10 -2 10 -10 42 -31 9 -1 7 3 12 -6 11 9 40 -29 13 -9 10 0 12 -4 11 -2 12 -5 16 18 11 10 8 hintmask 001000000000000010000010000010000010000010010000
500 700 rmoveto
-450 hlineto
hintmask 100000000000000000001110000000100000001000000000
-800 450 vlineto
-300 396 rmoveto
-17 11 -11 17 -16 vhcurveto
9 13 5 12 12 vvcurveto
18 -9 11 -13 -12 -8 -9 -13 vhcurveto
49 -64 rmoveto
12 -12 9 -12 9 -11 15 25 3 18 -17 17 -7 -7 -10 -9 -14 -9 rrcurveto
-39 -93 rmoveto
12 9 3 6 8 hvcurveto
-21 27 -21 22 -14 13 rrcurveto
-8 -8 -4 -11 -11 vvcurveto
-23 17 -18 22 vhcurveto
91 34 rmoveto
-22 19 13 -9 15 hhcurveto
15 9 9 13 8 hvcurveto
5 -1 rlineto
-44 -1 -27 -27 -32 hhcurveto
-22 -17 8 26 -25 hvcurveto
-23 -21 -25 -11 -32 hhcurveto
-45 -36 30 40 31 21 24 40 13 hvcurveto
-16 17 -7 13 22 vvcurveto
32 31 32 51 46 25 -30 -26 -10 -2 -8 -5 -7 vhcurveto
20 15 -8 -20 2 hvcurveto
18 12 14 10 19 hhcurveto
21 16 -15 -24 -23 -16 -17 -21 -14 -12 7 12 -6 hvcurveto
-12 -7 -12 -10 -11 -15 rrcurveto
hintmask 000000000000000000001000000000000100000000000000
-72 -105 rmoveto
-8 10 -5 -10 vlineto
hintmask 000000000000000001000000000000000100000000000000
-15 vlineto
-3 1 -1 2 2 1 1 4 1 vhcurveto
4 -1 rlineto
-2 -7 -3 -3 -6 -6 -3 4 43 callsubr
hintmask 000000000000000000100000000000010000000000000000
15 -5 5 5 7 vlineto
hintmask 000000000000000010000000100000000000000000000000
-75 -21 30 callgsubr
50 callsubr
22 hmoveto
-7 callsubr
hintmask 000000000000000100000000000000000000000100000000
132 -1 rmoveto
0 6 -2 4 -3 -5 -1 -5 43 callsubr
0 -6 1 -4 5 3 2 4 43 callsubr
50 callsubr
-120 -9 rmoveto
4 hlineto
hintmask 000000000000000000100010000000000000000000000000
19 -4 5 vlineto
hintmask 000000000000000000001000000010000000000000000000
13 -6 hlineto
4 2 3 3 5 hhcurveto
7 2 -5 -6 hvcurveto
hintmask 000000000000000010000000000000010000000000000000
-14 5 -5 vlineto
hintmask 000000000001000000000000000010000000000000000000
-17 5 3 hlineto
hintmask 000000000000000000100000000010000000000000000000
13 vlineto
3 -1 3 -3 -3 -3 -3 -5 vhcurveto
-11 3 -5 vlineto
50 callsubr
-16 hlineto
-71 5 rmoveto
6 hlineto
hintmask 000000000000000000010010000000000000000000000000
31 -6 5 vlineto
hintmask 000000000000000000001000001000000000000000000000
38 hlineto
hintmask 000000000000000000100000001000000000000000000000
-15 -5 vlineto
8 -2 -1 2 -6 hhcurveto
-8 hlineto
hintmask 000000000000000000010001000000000000000000000000
-14 3 vlineto
4 0 1 5 1 hvcurveto
5 hlineto
hintmask 000000000000000010000000100000000000000000000000
-17 -5 vlineto
5 -1 0 1 -4 hhcurveto
-3 hlineto
hintmask 000000000000000010000001000000000000000000000000
-12 7 -5 vlineto
50 callsubr
-23 hlineto
hintmask 000000000000000001000000000000000100000000000000
133 10 rmoveto
5 hlineto
-4 3 3 -3 3 hhcurveto
3 1 2 1 hvcurveto
hintmask 000000000000000000010000000000000100000000000000
7 -18 -4 12 vvcurveto
4 4 5 7 3 3 -1 -3 2 vhcurveto
1 4 rlineto
5 -10 -5 hlineto
4 -3 -2 1 -3 hhcurveto
-2 -2 -1 -2 hvcurveto
hintmask 000000000001000000000000000000000000100000000000
-5 18 2 -11 vvcurveto
-5 -3 -4 -7 -5 -3 2 2 -2 vhcurveto
-1 -3 rlineto
-5 hlineto
hintmask 000000000000000000010000000000000000100000000000
38 38 rmoveto
-5 5 hlineto
hintmask 000000000000000000001000000000000000000100000000
14 hlineto
hintmask 000000000000000000010000000000000000000100000000
-20 vlineto
4 1 4 3 4 hhcurveto
hintmask 000000000010000000000000000000000000000010000000
7 0 5 -6 0 -9 0 -7 -3 -9 0 flex1
-6 -3 2 4 -2 hvcurveto
-3 -6 rlineto
-4 hlineto
hintmask 100000000000000000001000000000000000000010000000
39 -6 rmoveto
3 3 2 4 hvcurveto
-3 7 -9 18 0 vvcurveto
-3 5 18 -5 -4 hlineto
7 -15 6 15 rlineto
-4 5 13 -5 -4 hlineto
hintmask 000000000100000000000000000000000000000010000000
-10 -24 rlineto
-7 -3 -4 -5 -6 hhcurveto
-6 -3 3 4 3 2 2 3 hvcurveto
hintmask 100000000000000000001000000000000000000010000000
5 1 -5 -2 -2 hvcurveto
hintmask 000000001000000000000000000000000000000000000000
45 -24 rmoveto
-6 -4 vlineto
-2 -4 -2 -3 -3 -3 rrcurveto
2 -2 2 -2 1 1 1 1 1 hflex1
3 -1 rlineto
-5 -1 -2 -4 -6 hhcurveto
hintmask 100000000000000000000000000000000000000001000000
-4 0 -2 2 -3 3 -3 -3 -4 -2 -6 flex1
-7 -5 4 6 6 4 3 6 2 hvcurveto
-3 3 -2 3 4 vvcurveto
hintmask 000000000000100000000000000000000000000000100000
5 4 6 9 6 4 -4 -5 -5 -3 -2 -5 -3 vhcurveto
2 -2 4 -5 3 -3 2 2 2 3 1 2 rrcurveto
-5 6 hlineto
hintmask 000000000010000000000000000000000010000000000000
-114 4 rmoveto
11 4 hlineto
-3 -2 2 2 2 1 1 0 hvcurveto
0 -1 1 -2 -2 -2 -2 -6 vhcurveto
hintmask 100000000000000000000000000000000000000000010000
132 -13 rmoveto
hintmask 000010000000000000000000000000000000000000010000
15 9 8 11 vhcurveto
hintmask 000010000000000000000000000000000000000000000000
5 4 -2 -3 3 hvcurveto
4 6 vlineto
-16 -6 vlineto
hintmask 000000010000000000000000000000000000000000000000
9 -3 -2 3 -6 hhcurveto
-6 -4 -5 -12 hvcurveto
hintmask 010000000000000000000000000000000000000000000000
-11 4 -6 8 vhcurveto
hintmask 000001000000000000000000000000000000000000000000
6 3 6 6 1 hvcurveto
6 hlineto
hintmask 100000000000000000000000000000000000000000000000
-10 -1 -6 -7 -11 hhcurveto
hintmask 100000000000000000000000000000000000000000010000
-13 -8 7 14 hvcurveto
hintmask 000000010000000000000000000000000000000000100000
-29 4 rmoveto
2 1 2 3 3 vvcurveto
3 -2 2 -3 -2 -2 -1 -3 -2 2 -3 3 -3 vhcurveto
hintmask 001000000000000000000000000000000000010000000000
-68 -11 rmoveto
69 callsubr
hintmask 100000000000000000000000000000000000010000000000
-6 -1 -4 -5 -8 hhcurveto
-10 -6 6 9 hvcurveto
hintmask 000000000001000000000000000000000000010000000000
10 7 6 8 11 4 -7 -10 -1 vhcurveto
hintmask 001000000000000000000000000001000000000000000000
-89 hmoveto
69 callsubr
70 callsubr
-6 -1 -4 -5 -8 hhcurveto
hintmask 100000000000000000000000010000000000000000000000
-10 -6 6 9 hvcurveto
hintmask 000000000001000000000000010000000000000000000000
10 7 6 8 vhcurveto
hintmask 000000000001000000000000000000001000000000000000
11 4 -7 -10 -1 hvcurveto
hintmask 001000000000000000000010000001000000000000000000
-63 2 30 callgsubr
252 hmoveto
hintmask 001000000000000000000000000000000000000000000000
39 callsubr
hintmask 001000000000000000000010000001000000000000000000
39 callgsubr
hintmask 000000100000000000000000000001000000010000000000
-138 2 rmoveto
66 callsubr
-70 hmoveto
66 callsubr
hintmask 001000000000000000000000000100000000000000000000
-22 -2 rmoveto
-7 callsubr
hintmask 001000000000000000000000000000000000000000000000
252 hmoveto
-7 callsubr
70 callsubr
-208 -10 rmoveto
4 hlineto
hintmask 000000100000000000000000000000001000000000000000
19 -5 5 5 1 vlineto
hintmask 000000000000001000000000000000001000000000000000
10 7 4 6 4 2 -1 -1 2 vhcurveto
8 2 rlineto
hintmask 001000000000000000000000000000000000100000000000
-39 4 -5 vlineto
hintmask 100000000000000000000000000000000010000000000000
-17 5 4 hlineto
hintmask 000000100000000000000000000000000010000000000000
19 -11 vlineto
hintmask 001000000000000000000000000000000010000000000000
-19 4 -5 vlineto
70 callsubr
-17 hlineto
hintmask 100000000000000000000000000000000001000000000000
69 5 rmoveto
4 hlineto
hintmask 000000100000000000000000000000000001000000000000
19 -4 5 vlineto
hintmask 000000000001000000000000000000000000000001000000
13 -6 hlineto
5 2 3 2 4 hhcurveto
4 2 -2 -4 -3 -2 -2 -3 -2 -3 1 3 hvcurveto
1 vlineto
-1 -3 -3 -4 -1 hvcurveto
hintmask 001000000000000000000000000000000000000001000000
-12 6 -5 vlineto
hintmask 100000000000000000000000000000000001000000000000
-19 hlineto
hintmask 100000000000000000000010000000000000000000000000
-183 5 rmoveto
6 hlineto
hintmask 000000010000000000000010000000000000000000000000
31 -6 5 vlineto
hintmask 000000000000010000000001000000000000000000000000
21 -5 -5 hlineto
hintmask 000000010000000000000001000000000000000000000000
-12 16 12 -5 5 vlineto
hintmask 000000000000010000000000000100000000000000000000
21 -5 -6 hlineto
hintmask 001000000000000000000000000100000000000000000000
-31 6 -5 vlineto
hintmask 100000000000000000000001000000000000000000000000
-21 5 5 hlineto
hintmask 000100000000000000000001000000000000000000000000
14 -16 vlineto
hintmask 001000000000000000000001000000000000000000000000
-14 5 -5 vlineto
hintmask 100000000000000000000010000000000000000000000000
-21 hlineto
hintmask 001000000000000000000000000000000000000000100000
234 7 rmoveto
-2 2 -4 5 -4 4 rrcurveto
-2 -2 -1 -2 -3 vvcurveto
-4 3 -3 4 2 2 1 2 2 vhcurveto
hintmask 100000000000000000000000000000000000000000000000
111 -2 rmoveto
0 -3 -2 -3 -4 -4 -2 3 43 callsubr
0 3 2 3 4 4 2 -3 43 callsubr
endchar
                </CharString>
                <CharString name="hungarumlaut">
                    558 218 hstem
131 380 vstem
131 578 -81 callgsubr
endchar
                </CharString>
                <CharString name="hyphen">
                    264 52 hstem
120 314 vstem
434 64 callsubr
-314 -52 311 hlineto
endchar
                </CharString>
                <CharString name="i">
                    61 callsubr
hstemhm
261.5 -14 callgsubr
-60 61 hintmask 11110000
57 callsubr
252 -567 rmoveto
5 47 rlineto
hintmask 11101000
-72 callsubr
                </CharString>
                <CharString name="iacute">
                    24 callgsubr
200 -59 callsubr
311 -585 -64 callsubr
                </CharString>
                <CharString name="ibreve">
                    27 callgsubr
81 50 52 callgsubr
292 565 -103 callgsubr
219 -565 -64 callsubr
                </CharString>
                <CharString name="icircumflex">
                    24 callgsubr
429 560 -100 callsubr
219 -681 -64 callsubr
                </CharString>
                <CharString name="idieresis">
                    61 callsubr
hstem
156.5 -14 callgsubr
45 61 50 62 vstem
436 567 -87 callsubr
354 -567 -64 callsubr
                </CharString>
                <CharString name="igrave">
                    24 callgsubr
388 577 -93 callsubr
143 -550 -64 callsubr
                </CharString>
                <CharString name="imacron">
                    27 callgsubr
126 53 52 callgsubr
458 663 -19 callsubr
53 -610 -64 callsubr
                </CharString>
                <CharString name="iogonek">
                    61 callsubr
hstemhm
179 56 26.5 -14 callgsubr
-60 61 hintmask 11101000
57 callsubr
98 -726 rmoveto
hintmask 11110100
-88 10 -34 16 28 vvcurveto
24 21 29 66 52 vhcurveto
189 hlineto
5 47 rlineto
hintmask 11100100
-75 callsubr
hintmask 11110100
193 hlineto
-63 -48 -25 -34 -37 vvcurveto
-48 45 -31 127 -12 vhcurveto
endchar
                </CharString>
                <CharString name="j">
                    -175 58 555 46 83 65 callgsubr
303.5 61.5 -57 61 hintmask 11110000
362 567 rmoveto
6 -7 callgsubr
-63 hlineto
-3 18 callgsubr
hintmask 11101000
67 -527 rmoveto
444 -278 vlineto
-4 -42 221 -8 rlineto
-405 vlineto
-106 -36 -30 -227 -10 vhcurveto
-2 -58 rlineto
251 10 75 65 140 vvcurveto
endchar
                </CharString>
                <CharString name="k">
                    29 callsubr
hintmask 1001010110000000
443 -5 rmoveto
hintmask 0011100110000000
65 callsubr
hintmask 0011010110000000
58 callsubr
hintmask 0101011010000000
68 callsubr
endchar
                </CharString>
                <CharString name="kcommaaccent">
                    29 callsubr
101 63 hintmask 1001010111000000
443 -5 rmoveto
hintmask 0011100111000000
65 callsubr
hintmask 0011010111000000
58 callsubr
hintmask 0101011011000000
68 callsubr
-8 -491 -100 callgsubr
                </CharString>
                <CharString name="l">
                    49 callgsubr
28 callgsubr
endchar
                </CharString>
                <CharString name="lacute">
                    49 callgsubr
183 797 -107 callgsubr
283 -797 rmoveto
-49 callgsubr
endchar
                </CharString>
                <CharString name="lcaron">
                    -8 callgsubr
165 60 vstem
441 564 -40 callsubr
25 -564 rmoveto
-49 callgsubr
endchar
                </CharString>
                <CharString name="lcommaaccent">
                    -5 callsubr
hstemhm
247 61 -54 63 hintmask 11100000
28 callgsubr
hintmask 11010000
144 -67 callsubr
                </CharString>
                <CharString name="ldot">
                    0 47 222 96 285.5 12 callsubr
hstem
247 61 204.5 79 vstem
28 callgsubr
505 269 rmoveto
5 96 rlineto
-79 hlineto
-5 -96 rlineto
endchar
                </CharString>
                <CharString name="less">
                    1 -21 hstem
90 58 vstem
418 595 rmoveto
-328 -279 rlineto
-53 vlineto
333 -283 36 42 -311 264 rlineto
8 vlineto
306 258 rlineto
endchar
                </CharString>
                <CharString name="lessequal">
                    20 52 hstem
89.5 61.5 vstem
151 350 rmoveto
299 188 -26 46 -334 -215 -1 -52 341 -189 21 48 -300 166 rlineto
320 -270 rmoveto
-391 -52 391 hlineto
endchar
                </CharString>
                <CharString name="lslash">
                    49 callgsubr
466 hmoveto
6 47 rlineto
-164 308 hlineto
127 67 -11 44 -116 -61 rlineto
292 -208 vlineto
-6 -43 153 -7 rlineto
-274 vlineto
-132 -70 11 -43 121 63 rlineto
-276 -163 -47 vlineto
endchar
                </CharString>
                <CharString name="m">
                    21 callgsubr
hstemhm
63 59 131 53 129 59 hintmask 11011100
201 443 rmoveto
39 13 -22 -55 hvcurveto
-366 53 389 vlineto
7 0 7 -1 6 vhcurveto
22 25 28 12 24 hhcurveto
40 13 -22 -57 hvcurveto
-364 59 388 vlineto
73 -33 34 -53 -42 -39 -24 -27 -28 vhcurveto
34 -13 -26 17 -37 hhcurveto
-41 -39 -25 -31 -28 hvcurveto
hintmask 10111100
-4 47 -54 -4 rlineto
4 11 callgsubr
59 hlineto
hintmask 11011100
179 -2 133 -3 87 vhcurveto
29 28 31 15 25 hhcurveto
endchar
                </CharString>
                <CharString name="macron">
                    610 53 hstem
112 326 vstem
438 663 -19 callsubr
endchar
                </CharString>
                <CharString name="minus">
                    264 52 hstem
82 386 vstem
468 64 callsubr
-386 -52 385 hlineto
endchar
                </CharString>
                <CharString name="mu">
                    89 callgsubr
153 52 -50 callgsubr
15 callgsubr
hintmask 0110000111000000
149 -164 rmoveto
-4 192 rlineto
-27 23 35 -12 42 hhcurveto
66 51 31 33 39 hvcurveto
hintmask 0101000111000000
4 -54 rlineto
hintmask 0100101011000000
-63 callgsubr
hintmask 0110000111000000
-180 -33 callsubr
-19 -53 hhcurveto
-68 -39 35 92 hvcurveto
319 vlineto
hintmask 1010010011000000
53 callgsubr
-652 vlineto
endchar
                </CharString>
                <CharString name="multiply">
                    98 383 hstem
86 378 vstem
425 98 rmoveto
39 38 -152 154 148 150 -37 38 -148 -151 -151 154 -38 -39 151 -154 -147 -150 37 -36 147 149 rlineto
endchar
                </CharString>
                <CharString name="n">
                    46 callsubr
247 60 hintmask 11011000
294 443 -29 callgsubr
                </CharString>
                <CharString name="nacute">
                    46 callsubr
247 60 hintmask 11011000
181 596 -107 callgsubr
113 -153 -29 callgsubr
                </CharString>
                <CharString name="naira">
                    0 84 109 46 135 50 -49 46 106 93 hstemhm
99 52 254.5 50.5 hintmask 11011110
151 527 rmoveto
5 hlineto
47 -106 rlineto
-52 hlineto
132 -182 rmoveto
-132 136 72 hlineto
183 -136 rmoveto
-73 hlineto
-60 136 rlineto
133 hlineto
-17 -375 rmoveto
67 189 72 50 -72 hlineto
hintmask 11101110
135 72 50 -72 196 -51 vlineto
hintmask 11011110
1 -199 rlineto
-153 hlineto
-88 199 rlineto
-66 hlineto
hintmask 11101110
-196 -73 -50 73 -135 -73 -50 73 -189 52 193 153 vlineto
98 -109 rmoveto
-48 109 rlineto
53 -109 hlineto
endchar
                </CharString>
                <CharString name="ncaron">
                    21 callgsubr
162 -20 hstemhm
96 61 247 60 hintmask 11011100
282 566 -101 callsubr
14 -123 -24 callgsubr
endchar
                </CharString>
                <CharString name="ncommaaccent">
                    46 callsubr
111 63 73 60 hintmask 11011100
294 443 -24 callgsubr
-52 -705 -100 callgsubr
                </CharString>
                <CharString name="nine">
                    -1 -21 266 47 287 52 hstem
73 57 288 58 vstem
176 -22 rmoveto
205 100 95 140 173 vvcurveto
156 -83 83 -117 -108 -95 -80 -129 -182 200 -55 140 134 vhcurveto
-20 -118 -76 -94 -168 -74 rrcurveto
-19 397 rmoveto
92 63 57 77 86 62 -64 -130 vhcurveto
-7 0 -7 -7 vvcurveto
-130 -120 -158 34 152 vvcurveto
endchar
                </CharString>
                <CharString name="nine.den">
                    -58 38 32 -21 159 42 hstemhm
125 48 201 50 hintmask 10111000
200 -227 -32 callsubr
vhcurveto
hintmask 11111000
-26 callgsubr
hintmask 10111000
-60 callsubr
                </CharString>
                <CharString name="nine.inf">
                    -146 -21 169 1 callsubr
-167 -85 callgsubr
                </CharString>
                <CharString name="nine.num">
                    577 1 callsubr
408 -85 callgsubr
                </CharString>
                <CharString name="nine.small">
                    4 -21 169 1 callsubr
-17 -85 callgsubr
                </CharString>
                <CharString name="nine.sup">
                    477 1 callsubr
308 -85 callgsubr
                </CharString>
                <CharString name="notequal">
                    73 callgsubr
467 156 rmoveto
1 52 rlineto
-198 hlineto
63 171 rlineto
134 hlineto
1 52 rlineto
-115 hlineto
47 128 -47 16 -53 -144 rlineto
-218 -52 199 hlineto
-64 -171 rlineto
-135 -52 116 hlineto
-48 -130 47 -15 54 145 rlineto
endchar
                </CharString>
                <CharString name="ntilde">
                    21 callgsubr
111 51 59 51 hstemhm
96 61 247 60 hintmask 11011110
354 577 -89 callgsubr
-60 -134 -33 callgsubr
hintmask 10111110
-27 callsubr
hintmask 11011110
16 callsubr
                </CharString>
                <CharString name="numbersign">
                    21 -21 183 52 152 52 181 -20 hstem
78 callgsubr
46 137 46 vstem
336 235 rmoveto
-137 hlineto
15 152 rlineto
137 hlineto
-39 -387 rmoveto
46 hlineto
18 183 rlineto
105 hlineto
5 52 rlineto
-104 hlineto
15 152 rlineto
104 hlineto
5 52 rlineto
-104 74 callsubr
-137 74 callsubr
-103 hlineto
-6 -52 rlineto
104 hlineto
-15 -152 rlineto
-103 hlineto
-6 -52 rlineto
103 hlineto
-18 -183 rlineto
46 hlineto
18 183 rlineto
137 hlineto
endchar
                </CharString>
                <CharString name="numero">
                    20 -21 22 -21 127 47 56 48 210 -20 107 49 -4 -20 hstemhm
47 50.5 127.5 50 39 52 -45 194 -43 51 hintmask 0111110111010000
412 230 rmoveto
62 49 72 133 127 -40 62 -57 -62 -50 -73 -132 -128 41 -61 57 hvcurveto
hintmask 1011101111010000
-191 -230 rmoveto
54 -1 rlineto
620 vlineto
-51 1 2 -462 rlineto
-2 hlineto
-118 462 rlineto
-59 hlineto
hintmask 0111110111010000
-620 52 vlineto
-3 488 rlineto
2 hlineto
323 -210 rmoveto
-31 -24 55 97 92 21 53 30 30 25 -55 -96 -92 -21 -54 -30 hvcurveto
hintmask 0111110110100000
94 -151 rmoveto
47 -194 -47 vlineto
endchar
                </CharString>
                <CharString name="o">
                    -3 callgsubr
267 -14 -105 callsubr
                </CharString>
                <CharString name="oacute">
                    -3 callgsubr
180 589 -107 callgsubr
87 -603 -105 callsubr
                </CharString>
                <CharString name="obreve">
                    75 callsubr
72 50 4 callsubr
272 569 -103 callgsubr
-5 -583 -105 callsubr
                </CharString>
                <CharString name="ocircumflex">
                    -3 callgsubr
409 564 -100 callsubr
-5 -699 -105 callsubr
                </CharString>
                <CharString name="odieresis">
                    75 callsubr
74 65 callgsubr
60 61 15.5 -38 callsubr
13 60 hintmask 11101100
416 571 -87 callsubr
hintmask 11111110
130 -585 -105 callsubr
                </CharString>
                <CharString name="oe">
                    -7 51 -50 51 187 41 166 51 hstemhm
37 60 164 53 141 54 hintmask 10111110
387 441 rmoveto
55 15 -60 -108 -2 hvcurveto
-37 -1 -70 -2 -34 -1 rrcurveto
116 3 28 56 42 hhcurveto
-203 -397 rmoveto
-58 -29 63 140 134 32 58 48 50 34 -70 -131 -127 -28 -67 -49 hvcurveto
hintmask 01111110
311 -50 rmoveto
7 51 -147 6 -38 52 -3 127 rlinecurve
195 4 rlineto
162 10 -32 94 -88 hhcurveto
-50 -38 -32 -59 -23 hvcurveto
61 -21 -37 30 -48 hhcurveto
-88 -57 -91 -167 hvcurveto
hintmask 10111110
-161 51 -78 82 55 41 38 68 22 vhcurveto
hintmask 01111110
30 -65 60 -37 117 -3 rrcurveto
endchar
                </CharString>
                <CharString name="ogonek">
                    21 -21 hstem
181 56 vstem
356 27 rmoveto
-130 -63 -45 -43 -43 85 callgsubr
6 51 rlineto
67 callsubr
endchar
                </CharString>
                <CharString name="ograve">
                    -3 callgsubr
368 581 -93 callsubr
-81 -568 -105 callsubr
                </CharString>
                <CharString name="ohungarumlaut">
                    -3 callgsubr
135 582 -81 callgsubr
-75 -595 -105 callsubr
                </CharString>
                <CharString name="omacron">
                    75 callsubr
117 53 4 callsubr
438 667 -19 callsubr
-171 -628 -105 callsubr
                </CharString>
                <CharString name="one">
                    0 53 454 136 -5 47 callgsubr
270 60 hintmask 10011000
479 hmoveto
6 53 rlineto
-155 590 hlineto
hintmask 10101000
-60 -5 rlineto
hintmask 11001000
-71 vlineto
-163 -21 1 -44 162 10 rlineto
-459 -173 -53 vlineto
endchar
                </CharString>
                <CharString name="one.den">
                    -210 -36 callsubr
-210 -98 callsubr
endchar
                </CharString>
                <CharString name="one.inf">
                    -150 -36 callsubr
-150 -98 callsubr
endchar
                </CharString>
                <CharString name="one.num">
                    425 44 253.5 112.5 hstem
268 50 vstem
-81 callsubr
endchar
                </CharString>
                <CharString name="one.small">
                    0 -36 callsubr
hmoveto
-98 callgsubr
endchar
                </CharString>
                <CharString name="one.sup">
                    325 -36 callsubr
325 -98 callsubr
endchar
                </CharString>
                <CharString name="oneeighth">
                    -220 40 189 -21 25 -21 161 40 90 60 callgsubr
128 50 -42 51 81 50 48 49 -45 52 hintmask 1011111101100000
-91 callgsubr
205 -546 rmoveto
hintmask 1011111101010000
-35 callsubr
hintmask 1011111011100000
-59 callgsubr
vhcurveto
hintmask 1101111011100000
8 callsubr
hintmask 1011111101100000
-13 callsubr
hintmask 1101111011100000
-86 callsubr
hintmask 1011111101010000
-89 callsubr
                </CharString>
                <CharString name="onefifth">
                    -220 47 166 37 110 45 98 66 callgsubr
hstem
-25 callgsubr
65 50 51 48 vstem
-91 callgsubr
-82 callsubr
                </CharString>
                <CharString name="onehalf">
                    85 callsubr
90 60 callgsubr
268 50 41 50 hintmask 10111111
-91 callgsubr
361 -536 16 callgsubr
hintmask 01111111
3 callsubr
hintmask 10111111
5 -42 rlineto
endchar
                </CharString>
                <CharString name="onequarter">
                    -125 43 365 60 callgsubr
136 43 89 50 23.5 47 hintmask 11110100
-91 callgsubr
hintmask 11111110
381 -452 -96 callgsubr
                </CharString>
                <CharString name="onesixth">
                    -219 43 168 39 252 66 callgsubr
hstem
127 48 93 50 59 48 vstem
-91 callgsubr
213 -545 -104 callsubr
                </CharString>
                <CharString name="onethird">
                    44 callsubr
-37 callsubr
53 49 vstem
-91 callgsubr
82 -546 -99 callsubr
                </CharString>
                <CharString name="ordfeminine">
                    123 44 79 42 140 37 113 47 hstem
115 52 202 51 vstem
248 288 rmoveto
-47 -34 19 43 56 55 34 147 -16 hvcurveto
-39 1 -28 1 -24 vhcurveto
-25 -32 -45 -20 -46 hhcurveto
130 -35 rmoveto
47 4 rlineto
-2 52 -3 47 82 vvcurveto
137 -61 42 -210 8 vhcurveto
-5 -47 164 -7 53 -21 7 -85 rlinecurve
-170 11 -83 -57 -79 vvcurveto
-60 51 -34 70 58 48 26 27 31 vhcurveto
2 -16 2 -19 1 -11 rrcurveto
-266 -86 rmoveto
-44 323 44 vlineto
endchar
                </CharString>
                <CharString name="ordmasculine">
                    123 44 79 44 294 43 hstem
102 52 243 52 vstem
102 432 rmoveto
-117 70 -69 96 100 81 78 118 116 -71 69 -97 -98 -81 -78 -117 vhcurveto
173 -142 rmoveto
-73 -48 51 99 92 47 52 73 75 48 -52 -98 -93 -48 -51 -74 hvcurveto
164 -167 rmoveto
44 -326 -44 vlineto
endchar
                </CharString>
                <CharString name="oslash">
                    47 callsubr
121 247 -65 callgsubr
                </CharString>
                <CharString name="oslashacute">
                    47 callsubr
180 589 -107 callgsubr
-59 -342 -65 callgsubr
                </CharString>
                <CharString name="otilde">
                    75 callsubr
73 51 59 51 4 callsubr
352 570 -89 callgsubr
-85 -584 -105 callsubr
                </CharString>
                <CharString name="p">
                    -149 -21 26 -21 153 53 -25 -21 449 51 81 callsubr
100 61 269 60 hintmask 01101011
255 41 rmoveto
-30 -31 5 12 -33 hvcurveto
-1 153 -2 96 -2 89 rrcurveto
29 36 45 19 47 hhcurveto
83 63 -70 -126 -133 -79 -74 -96 hvcurveto
-94 -206 rmoveto
hintmask 01011011
160 vlineto
hintmask 01101011
-5 24 24 -2 22 hhcurveto
138 121 87 callgsubr
-63 -50 -28 -32 -39 hvcurveto
hintmask 10100111
-4 51 -56 -4 rlineto
4 -106 2 -154 -223 vvcurveto
-169 vlineto
endchar
                </CharString>
                <CharString name="paragraph">
                    108 51 411 60 hstem
51 59 154 48 97 55 vstem
409 159 rmoveto
-35 1 -32 4 -30 6 rrcurveto
394 vlineto
4 29 32 2 36 hhcurveto
-299 -207 rmoveto
86 51 72 103 31 vhcurveto
-369 vlineto
-98 33 -56 65 82 vvcurveto
202 -471 rmoveto
223 vlineto
-5 30 33 -2 34 hhcurveto
-197 vlineto
55 7 rlineto
712 vlineto
-260 1 -153 -118 -160 vvcurveto
-109 77 -82 130 -36 vhcurveto
-241 vlineto
endchar
                </CharString>
                <CharString name="parenleft">
                    -144 -21 hstem
117 60 vstem
424 722 -11 callgsubr
                </CharString>
                <CharString name="parenleft.cap">
                    -158 927 hstem
117 60 vstem
424 769 -11 callgsubr
                </CharString>
                <CharString name="parenright">
                    -143 -21 hstem
373 60 vstem
126 -204 -11 callsubr
                </CharString>
                <CharString name="parenright.cap">
                    -157 927 hstem
373 60 vstem
126 -157 -11 callsubr
                </CharString>
                <CharString name="percent">
                    -12 48 -31 72 callsubr
228 49 93 47 180 49 -4 -20 hstemhm
49 51 89 50 72 50 89 51 hintmask 1001110111100000
149 634 rmoveto
-58 -42 -55 -88 -84 37 -49 55 55 43 54 88 84 -37 50 -53 hvcurveto
hintmask 0011101111100000
289 -4 rmoveto
-369 -620 rlineto
hintmask 0101101111100000
44 -26 368 622 rlineto
hintmask 1001110111100000
-336 -21 rmoveto
28 16 -31 -58 -58 -17 -33 -29 -27 -16 33 57 57 17 33 28 hvcurveto
257 -597 rmoveto
56 43 55 88 84 -37 50 -54 -57 -42 -55 -88 -84 37 -50 54 hvcurveto
3 48 rmoveto
-28 -16 33 57 57 17 33 29 27 16 -31 -58 -58 -17 -33 -28 hvcurveto
endchar
                </CharString>
                <CharString name="period">
                    0 100 hstem
226 97.5 vstem
321 hmoveto
5 100 rlineto
-98 hlineto
-4 -100 rlineto
endchar
                </CharString>
                <CharString name="periodcentered">
                    258 99 hstem
228 77 callsubr
vstem
323 258 rmoveto
3 99 rlineto
-97 hlineto
-2 -99 rlineto
endchar
                </CharString>
                <CharString name="peso">
                    21 -21 191 56 134 51 -47 45 146 53 -11 -20 hstemhm
107 58 hintmask 11011010
165 430 rmoveto
142 vlineto
150 22 83 -60 9 -104 rrcurveto
-242 -183 rmoveto
138 242 vlineto
-13 -103 -87 -41 -142 6 rrcurveto
hintmask 11100110
368 134 rmoveto
51 -68 vlineto
-6 145 -122 83 -230 -42 rrcurveto
-186 -81 -51 81 -381 58 191 vlineto
164 9 113 59 20 122 rrcurveto
endchar
                </CharString>
                <CharString name="plus">
                    264 52 hstem
248 55 vstem
485 264 rmoveto
1 52 rlineto
-183 192 -55 -192 -184 -52 184 -193 55 193 hlineto
endchar
                </CharString>
                <CharString name="plusminus">
                    71 52 176 52 hstem
248 55 vstem
475 71 rmoveto
1 52 rlineto
-173 176 175 hlineto
1 52 rlineto
-176 185 -55 -185 -177 -52 177 -176 -174 -52 hlineto
endchar
                </CharString>
                <CharString name="published">
                    7 37 95 139 155 41 102 37 hstem
45 40 120 44 83 43 90 35 callgsubr
90 -110 131 5 callgsubr
163 -166 rmoveto
1 0 42 1 54 vhcurveto
73 7 53 36 83 vvcurveto
87 -56 38 -114 -16 vhcurveto
-332 vlineto
127 218 rmoveto
-63 -32 -22 -51 6 vhcurveto
58 0 63 34 vvcurveto
55 7 28 -26 -57 vvcurveto
endchar
                </CharString>
                <CharString name="q">
                    -148 -21 26 -21 152 52 403 52 hstemhm
60 61 271 61 hintmask 10111100
392 -169 rmoveto
hintmask 01111100
61 5 rlineto
634 vlineto
17 -44 -39 8 -46 hhcurveto
-136 -128 -102 -175 -142 79 -88 106 61 50 28 32 36 hvcurveto
-125 -8 rmoveto
-85 -61 66 127 136 79 74 101 30 29 -6 -12 32 hvcurveto
-335 vlineto
-28 -34 -46 -22 -45 hhcurveto
endchar
                </CharString>
                <CharString name="question">
                    0 96 525 57 hstem
184.5 90.5 142 63 vstem
87 621 rmoveto
261 -16 69 -46 -54 vvcurveto
-79 -193 -61 -9 -141 vhcurveto
42 -1 rlineto
14 129 209 57 109 vvcurveto
78 -88 64 -299 18 vhcurveto
181 -678 rmoveto
2 96 rlineto
-91 hlineto
-1 -96 rlineto
endchar
                </CharString>
                <CharString name="questiondown">
                    -58 57 525 96 hstem
70 63 142.5 90 vstem
277 620 rmoveto
-3 -96 rlineto
90 hlineto
3 96 rlineto
97 -621 rmoveto
-262 16 -69 46 54 vvcurveto
79 193 61 10 141 vhcurveto
-42 1 rlineto
-14 -129 -210 -57 -109 vvcurveto
-78 88 -64 299 -18 vhcurveto
endchar
                </CharString>
                <CharString name="quotedbl">
                    375 291 hstem
141.5 77.5 135.5 77 vstem
396 375 rmoveto
37 257 -3 84 callsubr
-173 hmoveto
37 257 -4 84 callsubr
endchar
                </CharString>
                <CharString name="quotedblbase">
                    -195 300 hstem
167 69 139 69 vstem
111 -184 rmoveto
30 -11 86 85 27 101 -30 114 rlinecurve
-91 -6 50 -113 -3 -88 -69 -82 rlinecurve
207 1 rmoveto
30 -11 86 83 28 101 -29 115 rlinecurve
-91 -6 49 -113 -3 -88 -70 -81 rlinecurve
endchar
                </CharString>
                <CharString name="quotedblleft">
                    388 301 hstem
119 68 139 68 vstem
449 678 rmoveto
-31 11 -85 -85 -25 -101 31 -115 rlinecurve
89 8 -50 112 3 88 68 82 rlinecurve
-206 hmoveto
-31 11 -85 -85 -26 -101 30 -115 rlinecurve
87 7 -47 113 4 88 68 82 rlinecurve
endchar
                </CharString>
                <CharString name="quotedblright">
                    364 301 hstem
169 69 138 69 vstem
114 375 rmoveto
31 -11 85 85 26 101 -31 115 rlinecurve
-89 -8 50 -113 -4 -87 -68 -82 rlinecurve
207 hmoveto
31 -11 85 85 26 100 -30 116 rlinecurve
-88 -8 48 -112 -5 -88 -67 -82 rlinecurve
endchar
                </CharString>
                <CharString name="quoteleft">
                    388 301 hstem
221 69 vstem
348 678 rmoveto
-32 11 -86 -85 -29 -100 33 -116 rlinecurve
89 8 -51 113 7 87 69 82 rlinecurve
endchar
                </CharString>
                <CharString name="quoteright">
                    364 301 hstem
274 69 vstem
217 375 rmoveto
32 -11 85 84 29 101 -33 116 rlinecurve
-88 -8 50 -113 -6 -88 -69 -81 rlinecurve
endchar
                </CharString>
                <CharString name="quotesinglbase">
                    -194 299 hstem
271 70 vstem
213 -183 rmoveto
31 -11 86 84 31 100 -33 115 rlinecurve
-91 -6 52 -113 -5 -88 -71 -81 rlinecurve
endchar
                </CharString>
                <CharString name="quotesingle">
                    363 303 hstem
251 85 vstem
295 363 rmoveto
43 267 -4 36 rlineto
-85 hlineto
4 -303 rlineto
endchar
                </CharString>
                <CharString name="r">
                    6 callgsubr
-36 callgsubr
endchar
                </CharString>
                <CharString name="racute">
                    6 callgsubr
hintmask 10110000
203 593 -107 callgsubr
229 -593 rmoveto
-30 callsubr
endchar
                </CharString>
                <CharString name="rcaron">
                    -1 callgsubr
141 -20 hstemhm
204 59 hintmask 10111000
304 563 -101 callsubr
130 -563 rmoveto
62 callgsubr
hintmask 11011000
-34 callsubr
hintmask 10111000
-47 callgsubr
endchar
                </CharString>
                <CharString name="rcommaaccent">
                    6 callgsubr
-29 63 -36 callgsubr
hintmask 10101000
141 -67 callsubr
                </CharString>
                <CharString name="registered">
                    201 32 170 29.5 87.5 33 84 34 hstem
41 37 121 39 96 38 101 37 vstem
510 442 rmoveto
142 -99 89 -133 -2 vhcurveto
-140 -2 -97 -97 -143 vvcurveto
-142 92 -86 141 133 103 98 143 vhcurveto
-37 -3 rmoveto
-130 -88 -76 -112 -113 -82 73 126 125 84 80 115 115 81 -70 -128 vhcurveto
-130 -117 rmoveto
40 7 -59 89 rlineto
26 16 22 23 29 vvcurveto
50 -59 29 -114 -16 vhcurveto
-226 39 79 vlineto
55 2 rlineto
-55 116 rmoveto
61 5 35 -15 -30 vvcurveto
-18 -13 -17 -18 -12 vhcurveto
-65 -1 rlineto
endchar
                </CharString>
                <CharString name="registered.alt">
                    7 37 217.5 37 138.5 41 98 37 hstem
45 40 112 44 79 44 101 35 callgsubr
91 -110 130 5 callgsubr
245 -170 rmoveto
48 6 -57 142 rlineto
24 24 19 34 42 vvcurveto
68 -46 43 -121 -21 vhcurveto
-333 44 120 vlineto
45 3 rlineto
-45 174 rmoveto
51 9 28 -24 -47 vvcurveto
-31 -10 -25 -19 -20 vhcurveto
-50 -1 rlineto
endchar
                </CharString>
                <CharString name="ring">
                    545 40 128 41 hstem
153 63 callsubr
vstem
284 754 -93 callgsubr
endchar
                </CharString>
                <CharString name="ruble">
                    0 174 -47 47 100 48 253 53 -10 -20 hstemhm
135 61 242 61 hintmask 01110110
438 454 rmoveto
-101 -78 -29 -164 -2 vhcurveto
249 vlineto
155 18 87 -43 -92 vvcurveto
-21 -327 rmoveto
5 47 rlineto
-226 101 hlineto
195 7 108 53 126 vvcurveto
hintmask 01101110
133 -130 58 -234 -34 vhcurveto
-296 -91 -48 91 -99 -91 -48 91 vlineto
hintmask 10110110
-127 61 vlineto
hintmask 01110110
127 vlineto
endchar
                </CharString>
                <CharString name="rupee">
                    -5 53 -30 56 callgsubr
26 -21 235.5 45 203.5 -20 104 54 81 callsubr
78 56 103 55 44 54 73 54 hintmask 0100110111110000
259 -3 rmoveto
hintmask 0001110111110000
54 8 -79 266 rlineto
33 39 25 59 85 vvcurveto
126 -55 74 -159 -36 vhcurveto
hintmask 0010111011110000
-618 56 239 vlineto
53 3 rlineto
-53 331 rmoveto
74 14 29 -45 -97 vvcurveto
-71 -16 -51 -23 -36 vhcurveto
-64 -3 rlineto
373 205 rmoveto
-126 14 -45 -74 -63 vvcurveto
hintmask 1000110111110000
-113 127 -39 -92 vvcurveto
-46 -28 -39 -98 11 vhcurveto
-53 vlineto
137 -12 43 76 68 115 -127 40 87 vvcurveto
43 24 36 94 -11 vhcurveto
endchar
                </CharString>
                <CharString name="rupeeindia">
                    8 -21 391 46 144 52 hstem
83 408 vstem
474 19 rmoveto
-138 114 -78 58 -88 27 125 22 78 61 15 77 rrcurveto
99 46 -98 hlineto
-8 64 -48 53 -80 27 rrcurveto
235 hlineto
3 52 rlineto
-403 hlineto
-4 -51 160 -16 72 -58 12 -71 rlinecurve
-242 -46 242 hlineto
-12 -69 -68 -52 -153 -14 -12 -46 rcurveline
128 -37 64 -50 149 -123 rrcurveto
endchar
                </CharString>
                <CharString name="s">
                    38 callgsubr
218 62 hintmask 11011000
433 487 rmoveto
hintmask 10111000
-69 callgsubr
endchar
                </CharString>
                <CharString name="sacute">
                    38 callgsubr
218 62 hintmask 10111000
182 -28 callsubr
hintmask 11011000
251 -100 rmoveto
hintmask 10111000
-69 callgsubr
endchar
                </CharString>
                <CharString name="scaron">
                    -3 51 389 50 -50 53 129 -20 103 -20 80 callsubr
218 62 hintmask 10111110
284 557 -101 callsubr
hintmask 11011110
151 -70 rmoveto
hintmask 10111110
-69 callgsubr
endchar
                </CharString>
                <CharString name="scedilla">
                    -148 -21 165 52 -49 49 -44 -21 454 50 -50 53 80 callsubr
134 54 30 62 hintmask 1100011010000000
190 -219 rmoveto
hintmask 1010011110000000
37 callgsubr
36 -33 40 -70 44 vhcurveto
hintmask 1010011010000000
145 17 50 59 58 -15 callgsubr
hintmask 1100101010000000
-3 55 rlineto
hintmask 1100011010000000
-51 callgsubr
hintmask 1100011110000000
42 -3 38 0 34 2 rrcurveto
hintmask 1001011110000000
-7 -13 rlineto
-6 callsubr
endchar
                </CharString>
                <CharString name="schwa">
                    -12 52 173.5 40 188.5 54 hstem
72 59 287 61 vstem
255 -12 rmoveto
124 100 114 146 157 -83 86 -296 5 hvcurveto
-7 -54 247 -7 73 -52 6 -125 rlinecurve
-344 -9 rlineto
-153 -18 68 -108 130 hhcurveto
11 52 rmoveto
-92 -45 68 102 2 hvcurveto
287 7 rlineto
-112 -5 -58 -65 -89 hhcurveto
endchar
                </CharString>
                <CharString name="scommaaccent">
                    38 callgsubr
71 63 84 62 hintmask 11011100
433 487 rmoveto
hintmask 10111100
-69 callgsubr
-218 -705 -100 callgsubr
                </CharString>
                <CharString name="section">
                    -107 54 625 55 hstemhm
70 55 -13 62 202 61 -13 56 hintmask 11100100
125 279 rmoveto
34 44 32 54 22 vhcurveto
90 -40 111 -28 -58 vvcurveto
-35 -43 -32 -55 -22 vhcurveto
-90 41 -111 27 59 vvcurveto
hintmask 11011000
312 -238 rmoveto
39 -29 29 -41 23 vhcurveto
hintmask 11010100
64 28 49 44 51 125 -306 16 89 vvcurveto
44 59 51 217 -8 vhcurveto
-3 55 rlineto
-246 8 -89 -84 -73 vvcurveto
-39 29 -28 40 -23 vhcurveto
hintmask 11101000
-63 -28 -48 -43 -51 -126 306 -17 -88 vvcurveto
-45 -62 -51 -216 8 vhcurveto
-4 -54 rlineto
hintmask 11011000
253 -8 90 84 72 vvcurveto
endchar
                </CharString>
                <CharString name="semicolon">
                    335 101 hstemhm
232.5 77 callsubr
-67 70 hintmask 11000000
328 74 callgsubr
hintmask 10100000
-29 -518 rmoveto
31 -11 87 83 31 100 -32 115 rlinecurve
-92 -6 51 -113 -4 -87 -72 -81 rlinecurve
endchar
                </CharString>
                <CharString name="servicemark">
                    292 40 14 60 161 53 -36 40 hstemhm
39 43 80 43 55 69 callgsubr
hintmask 11101111
363 346 0 callgsubr
hintmask 10011111
-263 -235 rmoveto
-40 vlineto
118 47 45 46 hvcurveto
75 -123 30 54 vvcurveto
23 25 20 81 -1 vhcurveto
-2 40 rlineto
-105 4 -42 -49 -43 -73 123 -30 -53 vvcurveto
-25 -29 -25 -93 2 vhcurveto
endchar
                </CharString>
                <CharString name="seven">
                    17 -21 28 -21 561 56 hstemhm
86 397 hintmask 10110000
221 -4 rmoveto
65 193 88 194 109 185 rrcurveto
52 -393 vlineto
-4 -56 rlineto
334 hlineto
3 -3 rlineto
hintmask 01110000
-111 -180 -89 -189 -65 -189 rrcurveto
endchar
                </CharString>
                <CharString name="seven.den">
                    140 -23 callsubr
-216 -61 callgsubr
                </CharString>
                <CharString name="seven.inf">
                    200 -23 callsubr
-156 -61 callgsubr
                </CharString>
                <CharString name="seven.num">
                    775 -23 callsubr
419 -61 callgsubr
                </CharString>
                <CharString name="seven.small">
                    15 -21 27 -21 350 -26 callsubr
hintmask 10110000
240 -6 rmoveto
hintmask 01101000
-78 callgsubr
endchar
                </CharString>
                <CharString name="seven.sup">
                    675 -23 callsubr
319 -61 callgsubr
                </CharString>
                <CharString name="seveneighths">
                    67 callgsubr
449 45 -12 callgsubr
-46.5 34 callgsubr
hintmask 1011111010000000
240 419 rmoveto
hintmask 1011111000100000
-78 callgsubr
-126 -25 callsubr
205 -546 rmoveto
hintmask 1011111001000000
-35 callsubr
hintmask 1011110110000000
-59 callgsubr
vhcurveto
hintmask 1101110110000000
8 callsubr
hintmask 1011111010000000
9 callsubr
hintmask 1011111000100000
26 callsubr
hintmask 1101110110000000
-86 callsubr
hintmask 1011111001000000
-89 callsubr
                </CharString>
                <CharString name="six">
                    -10 52 287 48 265 -20 hstem
75 59 287 58 90 callgsubr
-10 rmoveto
109 95 80 129 182 -200 56 -140 -134 hvcurveto
20 117 75 95 166 73 -26 54 rcurveline
-204 -100 -95 -140 -173 vvcurveto
-156 83 -83 117 vhcurveto
6 52 rmoveto
-85 -62 64 130 7 0 8 1 7 hvcurveto
130 119 156 -35 -151 vvcurveto
-92 -63 -57 -77 vhcurveto
endchar
                </CharString>
                <CharString name="six.den">
                    -219 -16 callgsubr
-219 -104 callsubr
                </CharString>
                <CharString name="six.inf">
                    -159 -16 callgsubr
-159 -104 callsubr
                </CharString>
                <CharString name="six.num">
                    416 -16 callgsubr
416 -104 callsubr
                </CharString>
                <CharString name="six.small">
                    -9 -16 callgsubr
-9 -104 callsubr
                </CharString>
                <CharString name="six.sup">
                    316 -16 callgsubr
316 -104 callsubr
                </CharString>
                <CharString name="slash">
                    -181 898 hstem
16 520 vstem
485 717 rmoveto
-469 -879 54 -19 466 874 rlineto
endchar
                </CharString>
                <CharString name="space">
                    endchar
                </CharString>
                <CharString name="sterling">
                    0 53 229 49 305 -20 hstem
63 415 vstem
472 54 rmoveto
-274 -2 25 230 rlineto
189 hlineto
4 49 rlineto
-188 hlineto
21 191 27 39 202 13 -4 62 rcurveline
-232 -19 -51 -76 -23 -210 rrcurveto
-94 hlineto
-5 -49 rlineto
94 hlineto
-23 -230 -77 -1 rlineto
-51 409 vlineto
endchar
                </CharString>
                <CharString name="t">
                    23 callgsubr
hintmask 11011000
459 -9 -1 callsubr
hintmask 11101000
22 callgsubr
hintmask 11011000
61 callgsubr
endchar
                </CharString>
                <CharString name="tcaron">
                    23 callgsubr
142 60 hintmask 11011100
355 591 -40 callsubr
104 -600 -13 callgsubr
endchar
                </CharString>
                <CharString name="tcommaaccent">
                    23 callgsubr
42 63 hintmask 11011100
459 -9 -13 callgsubr
-198 -67 callsubr
                </CharString>
                <CharString name="thorn">
                    89 callgsubr
152 54 -25 -21 448 51 203 47 callgsubr
99 60 271 60 hintmask 0110101110000000
255 42 rmoveto
-31 -30 3 13 -35 hvcurveto
341 vlineto
27 36 45 18 44 86 callgsubr
-78 -73 -97 hvcurveto
-96 -206 rmoveto
hintmask 0101101110000000
160 vlineto
hintmask 0110101110000000
-5 25 26 -3 25 hhcurveto
133 122 87 callgsubr
-60 -50 -26 -31 -37 hvcurveto
265 vlineto
hintmask 1010110110000000
-60 -5 rlineto
-868 vlineto
endchar
                </CharString>
                <CharString name="three">
                    -11 57 520 54 hstem
414 58 vstem
98 -11 rmoveto
267 13 107 75 102 vvcurveto
73 -65 65 -191 29 vhcurveto
245 221 -5 53 rlineto
-357 -54 296 hlineto
-251 -226 rlineto
-30 vlineto
204 -23 66 -53 -60 vvcurveto
-68 -85 -48 -236 -12 vhcurveto
endchar
                </CharString>
                <CharString name="three.den">
                    53 callsubr
hstem
371 49 vstem
144 -220 -99 callsubr
                </CharString>
                <CharString name="three.inf">
                    -160 7 callsubr
-160 -99 callsubr
                </CharString>
                <CharString name="three.num">
                    415 22 callsubr
hstem
371 49 vstem
144 415 -99 callsubr
                </CharString>
                <CharString name="three.small">
                    -10 7 callsubr
-10 -99 callsubr
                </CharString>
                <CharString name="three.sup">
                    315 7 callsubr
315 -99 callsubr
                </CharString>
                <CharString name="threeeighths">
                    -220 40 189 -21 25 -21 161 40 90 49 callsubr
128 50 -42 51 179 49 -44 49 hintmask 1011111110010000
88 callsubr
-68 callgsubr
205 -546 rmoveto
-35 callsubr
hintmask 1011111101100000
-59 callgsubr
vhcurveto
hintmask 1101111101010000
8 callsubr
hintmask 1011111110010000
-13 callsubr
hintmask 1101111101100000
-86 callsubr
hintmask 1011111110010000
-89 callsubr
                </CharString>
                <CharString name="threefifths">
                    -220 47 166 37 110 45 98 49 callsubr
-24 callsubr
-46 49 hintmask 0111111110000000
88 callsubr
hintmask 0111111101000000
-68 callgsubr
hintmask 1111111110000000
-82 callsubr
                </CharString>
                <CharString name="threequarters">
                    -125 43 365 49 callsubr
3 callgsubr
-17.5 49 hintmask 11111010
88 callsubr
hintmask 11111001
-68 callgsubr
hintmask 11111110
381 -452 -96 callgsubr
                </CharString>
                <CharString name="tilde">
                    566 51 59 51 -24 -20 hstemhm
79 393 hintmask 11010000
346 566 rmoveto
hintmask 10110000
-44 callsubr
hhcurveto
hintmask 11010000
-77 callsubr
endchar
                </CharString>
                <CharString name="trademark">
                    581 39 hstem
97 43 120 69 callgsubr
vstem
140 581 rmoveto
71 39 -186 hlineto
-3 -39 rlineto
75 -285 43 hlineto
223 50 0 callgsubr
endchar
                </CharString>
                <CharString name="two">
                    0 54 517 57 hstem
397 60 vstem
479 hmoveto
54 -328 vlineto
197 162 109 107 127 vvcurveto
101 -78 80 -276 -3 vhcurveto
-5 -57 rlineto
235 -1 64 -53 -80 vvcurveto
-110 -111 -103 -207 -174 vhcurveto
5 -50 rlineto
endchar
                </CharString>
                <CharString name="two.den">
                    85 callsubr
hstemhm
359 50 hintmask 10110000
423 -210 16 callgsubr
hintmask 01110000
3 callsubr
hintmask 10110000
5 -42 rlineto
endchar
                </CharString>
                <CharString name="two.inf">
                    -150 37 callsubr
-150 -3 callsubr
                </CharString>
                <CharString name="two.num">
                    425 45 314 44 hstem
359 50 vstem
-51 callsubr
endchar
                </CharString>
                <CharString name="two.small">
                    0 37 callsubr
hmoveto
-87 callgsubr
endchar
                </CharString>
                <CharString name="two.sup">
                    325 37 callsubr
325 -3 callsubr
                </CharString>
                <CharString name="twofifths">
                    40 callsubr
99 71 callsubr
hstemhm
-25 callgsubr
156 50 -40 48 hintmask 1111111100000000
-51 callsubr
-72 -25 callsubr
hintmask 1111111010000000
-82 callsubr
                </CharString>
                <CharString name="twothirds">
                    44 callsubr
71 callsubr
hstemhm
359 50 -38 49 hintmask 11111110
-51 callsubr
-72 -25 callsubr
82 -546 rmoveto
hintmask 11111101
-103 callsubr
                </CharString>
                <CharString name="u">
                    -40 callgsubr
hintmask 01000111
405 -1 -97 callgsubr
                </CharString>
                <CharString name="uacute">
                    -28 callgsubr
182 -28 callsubr
hintmask 01000111
223 -588 -97 callgsubr
                </CharString>
                <CharString name="ubreve">
                    -54 callsubr
100 50 15 callgsubr
hintmask 1000011110000000
274 567 -103 callgsubr
hintmask 0100011110000000
131 -568 -34 callgsubr
                </CharString>
                <CharString name="ucircumflex">
                    -28 callgsubr
411 562 -100 callsubr
hintmask 01000111
131 -684 -97 callgsubr
                </CharString>
                <CharString name="udieresis">
                    -54 callsubr
102 132 82 callgsubr
-11.5 -38 callsubr
-25 60 hintmask 1000011101000000
418 569 -61 callsubr
hintmask 0100011010100000
-79 callgsubr
266 -570 rmoveto
hintmask 0010101100100000
-63 callgsubr
hintmask 1000011100100000
-82 callgsubr
hintmask 1001001100100000
-73 callsubr
                </CharString>
                <CharString name="ugrave">
                    -28 callgsubr
370 579 -93 callsubr
hintmask 01000111
55 -553 -97 callgsubr
                </CharString>
                <CharString name="uhungarumlaut">
                    -28 callgsubr
137 580 -81 callgsubr
hintmask 01000111
61 -580 -97 callgsubr
                </CharString>
                <CharString name="umacron">
                    -54 callsubr
145 53 15 callgsubr
hintmask 1000011110000000
440 665 -19 callsubr
hintmask 0100011110000000
-35 -613 -34 callgsubr
                </CharString>
                <CharString name="underscore">
                    -100 50 hstem
34 481 vstem
515 -50 rmoveto
-481 -50 481 hlineto
endchar
                </CharString>
                <CharString name="underscore.alt">
                    -100 50 hstem
-10 570 vstem
560 -50 rmoveto
-570 -50 570 hlineto
endchar
                </CharString>
                <CharString name="uni00A0">
                    endchar
                </CharString>
                <CharString name="uogonek">
                    -207 50 145 53 -32 -21 35 -30 callgsubr
82 callgsubr
117 56 71 60 hintmask 1100001111000000
439 -207 71 callgsubr
16 25 vvcurveto
hintmask 1001010111000000
24 30 77 callgsubr
-55 callgsubr
hintmask 1100001111000000
-163 1 -119 2 -83 vhcurveto
-47 -44 -46 -31 -54 hhcurveto
-65 -38 35 100 hvcurveto
311 vlineto
hintmask 1100100111000000
-21 callgsubr
56 -49 86 69 59 45 47 41 vhcurveto
hintmask 1010001111000000
4 -70 rlineto
-101 -53 -36 -38 -39 vvcurveto
hintmask 1100001111000000
-45 62 callsubr
endchar
                </CharString>
                <CharString name="uring">
                    -54 callsubr
80 51 callsubr
89 61 -4 63 callsubr
-13 60 hintmask 1000011101100000
277 756 -93 callgsubr
hintmask 0100011110010000
128 -716 rmoveto
hintmask 0010101110010000
-63 callgsubr
hintmask 1000011110010000
-82 callgsubr
hintmask 1001001110010000
-73 callsubr
                </CharString>
                <CharString name="v">
                    -4 59 429 -20 22 -20 hstemhm
50 453 hintmask 10110000
280 55 rmoveto
-7 hlineto
-60 144 -53 144 -49 143 -61 -3 rcurveline
56 -162 61 -162 69 -163 rrcurveto
79 hlineto
hintmask 11010000
68 162 64 164 56 162 rrcurveto
-62 hlineto
hintmask 10110000
-48 -142 -53 -144 -60 -143 rrcurveto
endchar
                </CharString>
                <CharString name="w">
                    -2 callgsubr
378 hmoveto
-94 callgsubr
                </CharString>
                <CharString name="wacute">
                    -2 callgsubr
180 -59 callsubr
198 -585 rmoveto
-94 callgsubr
                </CharString>
                <CharString name="wcircumflex">
                    -2 callgsubr
410 560 -100 callsubr
105 -681 rmoveto
-94 callgsubr
                </CharString>
                <CharString name="wdieresis">
                    0 82 -61 -21 484 -20 103 65 callgsubr
65 61 10.5 -38 callsubr
11 58 hintmask 01110110
416 567 -87 callsubr
241 -567 rmoveto
hintmask 01110111
-17 callgsubr
hintmask 10111111
-97 callsubr
                </CharString>
                <CharString name="wgrave">
                    -2 callgsubr
368 577 -93 callsubr
30 -550 rmoveto
-94 callgsubr
                </CharString>
                <CharString name="x">
                    19 -21 23 56 callgsubr
481 -20 23 -20 hstemhm
51 449 hintmask 10001100
430 -2 rmoveto
hintmask 00110100
67 5 -182 240 185 241 rlineto
-66 hlineto
-155 -206 rlineto
hintmask 01001100
-162 209 -66 -5 186 -242 -186 -240 rlineto
64 hlineto
157 206 rlineto
endchar
                </CharString>
                <CharString name="y">
                    0 callsubr
70 -178 -92 callsubr
                </CharString>
                <CharString name="yacute">
                    0 callsubr
187 -28 callsubr
-117 -765 -92 callsubr
                </CharString>
                <CharString name="ycircumflex">
                    0 callsubr
416 562 -100 callsubr
-209 -861 -92 callsubr
                </CharString>
                <CharString name="ydieresis">
                    25 callsubr
103 65 callgsubr
143.5 -38 callsubr
hintmask 10111100
423 569 -87 callsubr
-74 -747 8 callgsubr
hintmask 11011100
-52 callsubr
hintmask 10111100
-71 callsubr
                </CharString>
                <CharString name="yen">
                    0 167 -47 47 106 48 299 -20 21 -20 hstemhm
244.5 61 hintmask 01101100
480 120 rmoveto
1 47 rlineto
-176 hlineto
-1 91 8 15 rlineto
169 48 -142 hlineto
hintmask 01110100
164 299 rlineto
-62 hlineto
-163 -308 rlineto
hintmask 01101100
-168 309 -66 -2 167 -298 rlineto
-143 -48 170 hlineto
8 -14 -1 -92 rlineto
-177 hlineto
-1 -47 rlineto
178 hlineto
hintmask 10101100
-1 -120 rlineto
62 hlineto
hintmask 01101100
-1 120 rlineto
endchar
                </CharString>
                <CharString name="ygrave">
                    0 callsubr
375 579 -93 callsubr
-285 -730 -92 callsubr
                </CharString>
                <CharString name="z">
                    10 callgsubr
88 callgsubr
478 hmoveto
-48 callsubr
                </CharString>
                <CharString name="zacute">
                    10 callgsubr
88 callgsubr
193 -59 callsubr
285 -585 rmoveto
-48 callsubr
                </CharString>
                <CharString name="zcaron">
                    10 callgsubr
133 -20 103 -20 88 callgsubr
294 555 -101 callsubr
186 -555 rmoveto
-48 callsubr
                </CharString>
                <CharString name="zdotaccent">
                    10 callgsubr
83 84 callgsubr
257.5 63 vstem
318 567 -50 callsubr
222 -567 rmoveto
-48 callsubr
                </CharString>
                <CharString name="zero">
                    -9 callgsubr
-149 324 rmoveto
169 55 99 102 79 48 -63 -107 18 vhcurveto
-300 -156 rlineto
-1 18 -1 20 20 vvcurveto
155 -272 rmoveto
-78 -50 61 105 -18 hvcurveto
299 156 rlineto
1 -17 1 -18 -19 vvcurveto
-169 -52 -99 -103 vhcurveto
endchar
                </CharString>
                <CharString name="zero.alt">
                    -9 callgsubr
8 592 rmoveto
101 52 -104 -168 -169 -52 -99 -103 -102 -53 104 168 169 55 99 102 hvcurveto
endchar
                </CharString>
                <CharString name="zero.den">
                    -220 -16 callsubr
-220 -84 callgsubr
                </CharString>
                <CharString name="zero.inf">
                    -160 -16 callsubr
-160 -84 callgsubr
                </CharString>
                <CharString name="zero.num">
                    415 -16 callsubr
415 -84 callgsubr
                </CharString>
                <CharString name="zero.small">
                    -10 -16 callsubr
-10 -84 callgsubr
                </CharString>
                <CharString name="zero.sup">
                    315 -16 callsubr
315 -84 callgsubr
                </CharString>
                <CharString name="less_exclam_hyphen_hyphen.liga">
                    0 96 168 52 hstemhm
-1560 58 629 94 -62 40 hintmask 11101000
-841 91 callgsubr
-355 326 rmoveto
-36 43 92 callgsubr
447 hlineto
3 52 rlineto
-450 hlineto
863 hmoveto
-52 1044 vlineto
3 52 rlineto
hintmask 11110000
-1308 -316 93 callsubr
                </CharString>
                <CharString name="equal_equal_equal.liga">
                    16 61 187 60 187 60 hstem
467 511 93 callgsubr
-247 93 callgsubr
-248 rmoveto
1 61 rlineto
-1486 -61 hlineto
endchar
                </CharString>
                <CharString name="equal_equal_greater.liga">
                    94 callgsubr
-1018 1478 -57 94 callsubr
-1259 -52 1320 96 callsubr
-1329 -52 1267 97 callgsubr
                </CharString>
                <CharString name="equal_less_less.liga">
                    94 callgsubr
-1018 1477 -669 58 242 58 hintmask 11010000
-152 294 rmoveto
97 callsubr
-193 -164 96 callgsubr
-943 -52 882 hlineto
hintmask 11010000
-74 -63 rlineto
-53 vlineto
65 -55 96 callgsubr
-873 -52 934 hlineto
207 -176 36 42 rlineto
hintmask 11010000
-311 264 rlineto
hintmask 11001000
300 hmoveto
98 callsubr
96 callgsubr
36 42 rlineto
endchar
                </CharString>
                <CharString name="exclam_equal_equal.liga">
                    100 callsubr
-701 61 187 60 187 60 hstemhm
-530 520 hintmask 01111000
467 264 rmoveto
1 60 rlineto
-675 hlineto
100 187 rlineto
574 hlineto
1 60 rlineto
-543 hlineto
65 122 rlineto
hintmask 10001000
-51 24 rlineto
hintmask 01111000
-78 -146 rlineto
-879 -60 847 hlineto
-100 -187 rlineto
-747 -60 715 hlineto
-99 -187 rlineto
-616 -61 583 hlineto
-95 -178 rlineto
hintmask 10001000
54 -19 rlineto
hintmask 01111000
105 197 rlineto
838 hlineto
1 61 rlineto
-806 hlineto
99 187 rlineto
endchar
                </CharString>
                <CharString name="greater_equal_greater.liga">
                    101 callsubr
1469 -1156 57 1043 94 callsubr
-1015 102 callsubr
hintmask 11010000
100 callgsubr
208 176 rlineto
1015 hlineto
-158 -134 98 callgsubr
hintmask 11001000
-57 -31 rmoveto
-92 -78 rlineto
-1016 hlineto
hintmask 11010000
65 55 rlineto
54 vlineto
-73 62 rlineto
1015 hlineto
hintmask 11001000
101 -85 rlineto
endchar
                </CharString>
                <CharString name="greater_greater_equal.liga">
                    94 callgsubr
-1009 1477 -1165 57 243 57 hintmask 11010000
-640 317 rmoveto
-327 278 -36 -43 100 callgsubr
rlineto
hintmask 11010000
99 callgsubr
hintmask 11001000
300 hmoveto
54 vlineto
-73 62 96 callgsubr
880 105 callsubr
-942 102 callsubr
hintmask 11001000
103 callsubr
104 callsubr
208 176 96 callgsubr
933 105 callsubr
-873 hlineto
endchar
                </CharString>
                <CharString name="hyphen_hyphen_greater.liga">
                    106 callsubr
-980 1440 103 callgsubr
-1357 -52 1357 107 callsubr
                </CharString>
                <CharString name="less_equal_equal.liga">
                    101 callsubr
58 -58 1478 hintmask 11100000
-952 286 rmoveto
8 vlineto
101 85 rlineto
hintmask 11010000
1318 105 callsubr
-1258 104 callgsubr
1266 105 callsubr
-1328 hlineto
endchar
                </CharString>
                <CharString name="less_equal_greater.liga">
                    101 callsubr
58 -58 1470 -57 94 callsubr
-1031 104 callgsubr
1048 hlineto
-158 -134 35 -42 rlineto
hintmask 11010000
99 callgsubr
54 vlineto
hintmask 11101000
-57 -31 rmoveto
-92 -78 rlineto
-1171 hlineto
106 callgsubr
1153 hlineto
101 -85 rlineto
endchar
                </CharString>
                <CharString name="less_equal_less.liga">
                    101 callsubr
58 -58 1469 -369 58 hintmask 11010000
423 -20 rmoveto
36 42 rlineto
hintmask 11001000
-311 264 rlineto
99 callsubr
-193 -164 rlineto
-1015 hlineto
144 121 -36 43 rlineto
hintmask 11010000
91 callsubr
-158 134 rlineto
1015 hlineto
-1076 52 rmoveto
hintmask 11100000
106 callgsubr
1015 hlineto
hintmask 11001000
-74 -63 rlineto
-53 vlineto
65 -55 rlineto
endchar
                </CharString>
                <CharString name="less_hyphen_hyphen.liga">
                    264 52 hstemhm
-1010 58 -58 1444 hintmask 10100000
434 108 callsubr
-1360 107 callgsubr
1357 hlineto
endchar
                </CharString>
                <CharString name="ampersand_ampersand.liga">
                    -12 52 533 58 hstem
296 159 rmoveto
35 61 31 81 25 96 -55 7 rcurveline
108 callgsubr
rrcurveto
109 callgsubr
-21 5 -21 10 -21 vhcurveto
-48 6 108 callgsubr
rlinecurve
110 callgsubr
38 -59 33 -31 33 -15 rrcurveto
-8 19 21 -5 25 hhcurveto
63 65 36 82 54 hvcurveto
31 -35 33 -40 36 -44 48 40 rcurveline
-42 50 -39 44 -34 38 rrcurveto
-219 163 rmoveto
-38 -24 -29 -25 -22 -27 17 43 15 48 14 51 10 -21 14 -21 19 -24 rrcurveto
-335 -282 rmoveto
111 callgsubr
351 hmoveto
111 callgsubr
-148 114 rmoveto
0 0 0 0 vhcurveto
endchar
                </CharString>
                <CharString name="bar_bar.liga">
                    -226 56 329 56 vstem
-170 705 109 callsubr
385 886 109 callsubr
endchar
                </CharString>
                <CharString name="bar_greater.liga">
                    -251 56 468 57 vstem
330 317 rmoveto
-525 456 -56 -5 rlineto
-949 56 5 vlineto
525 439 rlineto
-57 23 rmoveto
-468 -391 rlineto
804 vlineto
468 -405 rlineto
endchar
                </CharString>
                <CharString name="colon_equal.liga">
                    131 101 -76 52 147 101 -77 52 hstemhm
-288.5 96.5 hintmask 00000000
hintmask 01101000
-289 355 110 callsubr
hintmask 10011000
635 -77 rmoveto
112 callgsubr
-211 -248 110 callsubr
hintmask 01011000
635 -76 rmoveto
112 callgsubr
endchar
                </CharString>
                <CharString name="equal_equal.liga">
                    95 callgsubr
hstem
-468 936 vstem
467 379 111 callsubr
-936 -52 hlineto
935 -223 111 callsubr
-936 -52 hlineto
endchar
                </CharString>
                <CharString name="equal_greater.liga">
                    94 callgsubr
-468 927 -56 94 callsubr
-709 -52 770 96 callsubr
-779 -52 717 97 callgsubr
                </CharString>
                <CharString name="exclam_equal.liga">
                    100 callsubr
-561 52 171 52 hstemhm
-468 936 -755 520 hintmask 00110000
66 379 rmoveto
401 105 callsubr
-375 hlineto
hintmask 00101000
140 262 rlineto
hintmask 10001000
-51 24 rlineto
hintmask 00101000
-153 -286 rlineto
-497 -52 470 hlineto
hintmask 01101000
-92 -171 rlineto
-378 -52 351 hlineto
-170 -318 rlineto
hintmask 10001000
54 -19 rlineto
hintmask 01101000
180 337 rlineto
520 105 callsubr
-494 hlineto
endchar
                </CharString>
                <CharString name="greater_equal.liga">
                    -335 702 vstem
113 callgsubr
-675 -283 rlineto
675 113 rmoveto
-675 -283 -25 42 700 297 rlineto
endchar
                </CharString>
                <CharString name="hyphen_greater.liga">
                    106 callsubr
-430 890 103 callgsubr
-807 -52 807 107 callsubr
                </CharString>
                <CharString name="hyphen_hyphen.liga">
                    106 callsubr
-383 314 123 314 vstem
-72 264 rmoveto
114 callgsubr
748 hmoveto
114 callgsubr
endchar
                </CharString>
                <CharString name="less_bar.liga">
                    -301 57 468 56 vstem
224 773 rmoveto
-525 -456 rlineto
-54 vlineto
525 -439 rlineto
-5 56 949 vlineto
-524 -482 rmoveto
8 vlineto
468 405 rlineto
-804 vlineto
endchar
                </CharString>
                <CharString name="less_equal.liga">
                    -363 699 vstem
336 22 rmoveto
-25 -42 -675 283 113 callsubr
-88 -193 rmoveto
56 vlineto
700 -297 -25 -42 rlineto
endchar
                </CharString>
                <CharString name="less_hyphen.liga">
                    264 52 hstemhm
-460 58 -58 894 hintmask 10100000
434 108 callsubr
-810 107 callgsubr
807 hlineto
endchar
                </CharString>
                <CharString name="less_slash.liga">
                    418 100 callsubr
hstem
-460 58 199 520 vstem
266 717 rmoveto
-367 -687 -301 256 rlineto
98 callsubr
-76 -142 54 -19 466 874 rlineto
endchar
                </CharString>
                <CharString name="plus_plus.liga">
                    106 callsubr
-239 55 364 55 vstem
235 108 callsubr
192 -55 -192 -364 115 callgsubr
193 364 -193 55 193 182 vlineto
102 callgsubr
endchar
                </CharString>
                <CharString name="question_question.liga">
                    0 96 525 57 hstem
-337 91 142 63 125 91 141 63 vstem
-428 678 rmoveto
116 callgsubr
420 hmoveto
116 callgsubr
-329 -678 117 callgsubr
419 -96 117 callgsubr
endchar
                </CharString>
                <CharString name="slash_greater.liga">
                    100 callsubr
hstem
-335 520 218 57 vstem
133 595 rmoveto
-1 -1 53 99 114 callsubr
387 726 297 -251 rlineto
-8 vlineto
-312 -264 98 callgsubr
endchar
                </CharString>
                <CharString name="underscore_underscore.liga">
                    -100 50 hstem
-553 1115 vstem
562 -100 rmoveto
50 -1115 -50 vlineto
endchar
                </CharString>
                <CharString name="LIG">
                    endchar
                </CharString>
                <CharString name="uniE0A0">
                    -59 53 160 104 264 54 53 53 hstemhm
6 53 0 105 0 53 106 53 0 105 0 53 hintmask 1111010101000000
428 576 rmoveto
-58 -47 -47 -60 hvcurveto
hintmask 1111010010000000
-38 22 -34 31 -18 vhcurveto
-15 vlineto
-53 -53 -53 -53 -44 -34 -9 -15 -28 vhcurveto
251 vlineto
hintmask 1111101101000000
31 17 22 34 40 vvcurveto
58 -47 48 -58 -60 -46 -48 -58 vhcurveto
hintmask 1111010101000000
-40 21 -34 32 -17 vhcurveto
-347 vlineto
hintmask 1111101010000000
-32 -17 -21 -34 -40 vvcurveto
-58 46 -48 60 58 47 48 58 29 -11 25 -17 19 vhcurveto
18 16 24 16 41 hhcurveto
106 105 105 106 hvcurveto
14 vlineto
hintmask 1111010101000000
32 19 21 34 38 vvcurveto
59 -46 47 -60 vhcurveto
hintmask 1111101101000000
-316 53 rmoveto
28 24 -24 -29 -30 -24 -24 -28 -30 -23 24 30 29 23 24 30 hvcurveto
316 -212 rmoveto
-28 -24 24 28 30 24 23 28 30 23 -23 -30 -28 -23 -24 -30 hvcurveto
-316 -423 rmoveto
-30 -23 23 30 29 23 24 30 28 24 -24 -29 -30 -24 -23 -28 hvcurveto
endchar
                </CharString>
                <CharString name="uniE0B0">
                    115 callsubr
609 313 rmoveto
-627 581 -2 -1099 rlineto
endchar
                </CharString>
                <CharString name="uniE0B2">
                    115 callsubr
-20 313 rmoveto
629 -518 -2 1099 rlineto
endchar
                </CharString>
            <CharString index="0">
                rmoveto
19 -28 65 37 99 68 54 53 rlinecurve
-52 48 -45 -56 -83 -80 -57 -42 rlinecurve
return
            </CharString>
            <CharString index="1">
                -48 callgsubr
-71 callgsubr
-201 81 -113 136 hvcurveto
7 597 -90 callsubr
            </CharString>
            <CharString index="2">
                201 6 75 52 64 vvcurveto
48 -46 41 -135 19 vhcurveto
173 133 -4 42 rlineto
-263 -45 hlineto
205 1 rlineto
-2 vlineto
-170 -133 -1 -26 rlineto
143 -15 49 -30 -35 vvcurveto
-39 -60 -28 -171 -6 vhcurveto
return
            </CharString>
            <CharString index="3">
                -106 callsubr
endchar
            </CharString>
            <CharString index="4">
                rmoveto
69 63 54 91 56 hvcurveto
-37 20 rlineto
-74 -51 -40 -41 -55 hhcurveto
-51 -37 33 86 -52 hvcurveto
-44 -26 rlineto
-96 56 57 -47 66 hhcurveto
return
            </CharString>
            <CharString index="5">
                -3 71 -3 63 106 vvcurveto
184 -77 58 -272 10 vhcurveto
-7 -54 222 -9 67 -33 6 -124 rlinecurve
-221 16 -104 -73 -103 vvcurveto
return
            </CharString>
            <CharString index="6">
                rmoveto
124 74 76 136 hvcurveto
-86 callgsubr
-137 71 -74 117 vhcurveto
endchar
            </CharString>
            <CharString index="7">
                rmoveto
30 -10 54 67 13 75 -12 61 rlinecurve
-7 -65 -3 -6 hhcurveto
23 -58 8 -60 -38 -72 rrcurveto
endchar
            </CharString>
            <CharString index="8">
                -73 callgsubr
hintmask 01011110
42 callsubr
hintmask 00111110
-102 callsubr
hintmask 10011110
-43 callgsubr
hintmask 01011110
-23 callgsubr
            </CharString>
            <CharString index="9">
                43 callgsubr
-117 368 hlineto
-50 -4 rlineto
-61 vlineto
-125 -17 1 -37 124 9 rlineto
-258 -130 -44 vlineto
return
            </CharString>
            <CharString index="10">
                rmoveto
hintmask 00101011
-63 callgsubr
hintmask 10000111
-82 callgsubr
hintmask 10010011
-73 callsubr
            </CharString>
            <CharString index="11">
                -95 callgsubr
34 callsubr
-1 85 rlineto
endchar
            </CharString>
            <CharString index="12">
                -58 callgsubr
-83 callgsubr
return
            </CharString>
            <CharString index="13">
                -17 callgsubr
hintmask 10111000
-97 callsubr
            </CharString>
            <CharString index="14">
                rmoveto
-79 -52 -45 -62 -56 54 -46 77 79 51 45 61 57 -54 46 -76 hvcurveto
-41 vmoveto
50 33 -27 -37 -37 -31 -27 -52 -51 -32 27 37 37 31 27 52 hvcurveto
return
            </CharString>
            <CharString index="15">
                -175 570 -88 callgsubr
            </CharString>
            <CharString index="16">
                -81 callsubr
-76 -25 callsubr
return
            </CharString>
            <CharString index="17">
                -67 -209 -62 -206 -59 -207 rrcurveto
61 hlineto
19 68 19 67 19 67 rrcurveto
225 hlineto
return
            </CharString>
            <CharString index="18">
                rmoveto
-44 callsubr
-77 callsubr
return
            </CharString>
            <CharString index="19">
                rmoveto
7 hlineto
33 -106 31 -105 31 -106 rrcurveto
-197 hlineto
31 105 32 106 32 106 rrcurveto
endchar
            </CharString>
            <CharString index="20">
                -88 callsubr
3 callsubr
5 -42 rlineto
return
            </CharString>
            <CharString index="21">
                423 -63 -431 vlineto
-104 -42 -45 -86 -82 -51 51 112 vhcurveto
417 -62 -424 vlineto
return
            </CharString>
            <CharString index="22">
                -32 callsubr
-26 callgsubr
-60 callsubr
            </CharString>
            <CharString index="23">
                rmoveto
101 65 86 127 124 -57 76 -98 -101 -64 -86 -126 -125 56 -76 98 hvcurveto
6 370 rmoveto
71 38 -62 -104 -100 -36 -60 -73 -71 -38 62 103 101 36 60 73 hvcurveto
endchar
            </CharString>
            <CharString index="24">
                -163 hlineto
3 41 39 161 20 68 -55 4 rcurveline
-32 -120 -19 -124 1 -74 206 2 rcurveline
return
            </CharString>
            <CharString index="25">
                -179 -33 callsubr
-20 -53 hhcurveto
-68 -39 35 100 hvcurveto
311 vlineto
return
            </CharString>
            <CharString index="26">
                rmoveto
30 -20 49 53 61 79 32 54 rlinecurve
-64 32 -24 -57 -45 -86 -39 -55 rlinecurve
207 -1 rmoveto
29 -19 51 52 59 79 34 55 rlinecurve
-67 28 -24 -58 -44 -82 -38 -55 rlinecurve
return
            </CharString>
            <CharString index="27">
                rmoveto
-35 callgsubr
-160 -50 382 hlineto
5 50 rlineto
-165 hlineto
endchar
            </CharString>
            <CharString index="28">
                -157 hmoveto
2 -47 callsubr
1 18 callgsubr
return
            </CharString>
            <CharString index="29">
                46 121 64 121 78 116 rrcurveto
43 -289 vlineto
-4 -45 rlineto
240 hlineto
1 -3 -79 -113 -63 -115 -46 -119 rlinecurve
return
            </CharString>
            <CharString index="30">
                rmoveto
-1 -60 rlineto
279 -17 108 99 92 -68 callsubr
-64 -86 -61 -237 21 vhcurveto
return
            </CharString>
            <CharString index="31">
                -310 236 267 48 -267 228 306 54 -369 -620 return
            </CharString>
            <CharString index="32">
                -93 callgsubr
-30 -677 rmoveto
hintmask 1001111100100000
-74 callgsubr
hintmask 1001111111000000
2 callsubr
hintmask 0101111100100000
42 callsubr
hintmask 0011111100100000
-102 callsubr
hintmask 1001111100100000
-43 callgsubr
hintmask 0101111100100000
-23 callgsubr
            </CharString>
            <CharString index="33">
                -67 -45 -41 callgsubr
-54 1 -39 1 -34 vhcurveto
return
            </CharString>
            <CharString index="34">
                rmoveto
-74 callgsubr
2 callsubr
return
            </CharString>
            <CharString index="35">
                5 47 rlineto
-72 callsubr
            </CharString>
            <CharString index="36">
                201 -1 -79 113 -136 -38 callgsubr
return
            </CharString>
            <CharString index="37">
                -93 callgsubr
hintmask 1001111110000000
172 -852 rmoveto
hintmask 0011111110000000
-63 callsubr
hintmask 0101111110000000
-90 callgsubr
hintmask 1001111110000000
-12 callsubr
hintmask 0011111110000000
-92 callgsubr
            </CharString>
            <CharString index="38">
                -51 callgsubr
266 -17 84 78 75 -15 callgsubr
return
            </CharString>
            <CharString index="39">
                -105 callgsubr
-78 -179 -44 callgsubr
return
            </CharString>
            <CharString index="40">
                rmoveto
176 57 94 104 43 35 -15 -30 27 vhcurveto
-232 -415 rlineto
-22 46 -12 63 81 vvcurveto
165 -274 rmoveto
-43 -36 15 30 -26 hvcurveto
232 414 rlineto
22 -45 12 -64 -80 vvcurveto
-176 -58 -94 -103 vhcurveto
-11 -53 -48 callgsubr
hintmask 10011100
-1 103 -20 79 -39 54 41 72 rcurveline
hintmask 01101100
-41 22 -32 -59 rlineto
28 -34 -41 15 -49 -38 callgsubr
-104 21 -80 40 -53 hvcurveto
-40 -71 rlineto
hintmask 10101100
41 -22 32 58 rlineto
-28 33 41 -14 49 hhcurveto
endchar
            </CharString>
            <CharString index="41">
                rmoveto
hintmask 00110111
-27 callgsubr
hintmask 01011011
-57 callgsubr
endchar
            </CharString>
            <CharString index="42">
                rmoveto
127 64 72 89 37 32 -12 -23 26 vhcurveto
-213 -307 rlineto
-22 35 -13 48 60 vvcurveto
155 -210 rmoveto
-35 -32 12 22 -25 hvcurveto
212 308 rlineto
22 -35 13 -47 -59 vvcurveto
-128 -65 -73 -90 vhcurveto
-9 -51 rmoveto
121 102 105 159 hvcurveto
hintmask 10011100
76 -21 61 -35 42 vhcurveto
42 59 rlineto
hintmask 01101100
-38 26 -37 -54 rlineto
24 -33 -40 13 -44 hhcurveto
-121 -103 -105 -157 -77 22 -62 36 -42 hvcurveto
-42 -60 rlineto
hintmask 10101100
38 -25 37 53 rlineto
-23 33 39 -13 44 hhcurveto
endchar
            </CharString>
            <CharString index="43">
                -144 -33 -38 -241 -18 vhcurveto
148 199 rmoveto
-85 -62 58 114 120 77 67 97 33 33 -6 -11 33 hvcurveto
-299 vlineto
-24 -35 -46 -19 -45 hhcurveto
endchar
            </CharString>
            <CharString index="44">
                56 3 rlineto
-55 callgsubr
return
            </CharString>
            <CharString index="45">
                -251 -11 -69 76 130 vvcurveto
109 58 78 254 4 vhcurveto
-4 58 rlineto
-277 -9 -91 -117 -131 vvcurveto
return
            </CharString>
            <CharString index="46">
                rmoveto
hintmask 10100000
-78 callgsubr
endchar
            </CharString>
            <CharString index="47">
                208 vlineto
hintmask 11010000
-5 callgsubr
hintmask 10110000
-21 callsubr
            </CharString>
            <CharString index="48">
                61 27 38 33 47 vvcurveto
57 -58 37 -76 -93 -52 -53 -49 return
            </CharString>
            <CharString index="49">
                55 callsubr
-59 hlineto
1 141 -48 -4 1 -137 rlineto
return
            </CharString>
            <CharString index="50">
                -618 62 235 vlineto
146 4 rlineto
-146 331 rmoveto
172 27 71 -60 -95 vvcurveto
-70 -37 -51 -52 -35 vhcurveto
-154 -3 rlineto
return
            </CharString>
            <CharString index="51">
                18 7 callgsubr
199 48 317 55 return
            </CharString>
            <CharString index="52">
                -5 114 -2 161 207 vvcurveto
-60 hlineto
return
            </CharString>
            <CharString index="53">
                691 -101 callsubr
return
            </CharString>
            <CharString index="54">
                rmoveto
226 72 81 68 66 vvcurveto
hintmask 11001000
75 -102 44 48 vvcurveto
31 38 28 131 10 vhcurveto
2 45 rlineto
hintmask 10101000
-117 6 -49 35 39 vvcurveto
hintmask 10110000
49 94 44 78 vvcurveto
73 -78 46 -223 72 vhcurveto
-21 -52 rlineto
184 -56 77 -40 -56 -62 -90 -42 -62 vvcurveto
-39 33 -40 85 -20 vhcurveto
hintmask 11001000
-87 -22 -33 -41 -37 -56 98 -49 -56 vvcurveto
-47 -81 -45 -188 -54 vhcurveto
endchar
            </CharString>
            <CharString index="55">
                696 -100 callsubr
return
            </CharString>
            <CharString index="56">
                -243 20 -79 -79 -71 -122 280 -11 -98 vvcurveto
-47 -61 -45 -224 18 vhcurveto
-3 -55 rlineto
return
            </CharString>
            <CharString index="57">
                -21 -21 24 -30 callgsubr
return
            </CharString>
            <CharString index="58">
                6 47 rlineto
-164 650 -208 hlineto
-6 -43 153 -7 rlineto
-600 -163 -47 vlineto
return
            </CharString>
            <CharString index="59">
                rmoveto
144 92 121 215 -1 hvcurveto
return
            </CharString>
            <CharString index="60">
                -1 23 -3 45 -1 13 rrcurveto
-178 hlineto
-5 -43 128 -7 3 -104 1 -123 3 -160 rlinecurve
-137 -47 hlineto
return
            </CharString>
            <CharString index="61">
                rmoveto
hintmask 00111110
-63 callsubr
hintmask 01011110
-90 callgsubr
hintmask 10011110
-12 callsubr
hintmask 00111110
-92 callgsubr
            </CharString>
            <CharString index="62">
                5 56 -346 -2 341 512 rlineto
54 -398 vlineto
-5 -56 338 2 -343 -512 rlineto
-54 vlineto
endchar
            </CharString>
            <CharString index="63">
                rmoveto
426 43 -426 hlineto
return
            </CharString>
            <CharString index="64">
                -78 62 -47 88 79 62 37 37 40 vhcurveto
return
            </CharString>
            <CharString index="65">
                -56 callsubr
hstem
return
            </CharString>
            <CharString index="66">
                32 57 76 71 43 195 -20 hvcurveto
return
            </CharString>
            <CharString index="67">
                -54 callsubr
15 callgsubr
return
            </CharString>
            <CharString index="68">
                11 -21 31 -21 23 -21 235 47.5 291.5 54 -12 -20 hstemhm
100 62 return
            </CharString>
            <CharString index="69">
                hhcurveto
-144 -92 -120 -216 return
            </CharString>
            <CharString index="70">
                rmoveto
6 -325 -115 hlineto
36 109 37 110 36 106 rrcurveto
6 -566 rmoveto
236 hlineto
81 callgsubr
-185 236 156 48 -156 228 181 54 -282 hlineto
-73 -206 -71 -207 -69 -207 rrcurveto
63 hlineto
20 63 21 65 22 65 rrcurveto
131 hlineto
endchar
            </CharString>
            <CharString index="71">
                hintmask 10110000
432 hmoveto
-30 callsubr
return
            </CharString>
            <CharString index="72">
                160 50 -382 -50 160 -520 return
            </CharString>
            <CharString index="73">
                rmoveto
hintmask 0010101110000000
-63 callgsubr
hintmask 1000011110000000
-82 callgsubr
hintmask 1001001110000000
-73 callsubr
            </CharString>
            <CharString index="74">
                -45 callsubr
-70 -54 -31 -33 -42 vhcurveto
return
            </CharString>
            <CharString index="75">
                -20 callgsubr
-355 -270 -44 callgsubr
return
            </CharString>
            <CharString index="76">
                rmoveto
69 41 -36 -99 hvcurveto
-308 60 327 vlineto
return
            </CharString>
            <CharString index="77">
                -21 480 -20 22 -20 23 -20 return
            </CharString>
            <CharString index="78">
                -33 callgsubr
hintmask 10111000
-27 callsubr
hintmask 11011000
16 callsubr
            </CharString>
            <CharString index="79">
                -40 callgsubr
hintmask 10000111
return
            </CharString>
            <CharString index="80">
                66 12 -150 267 rlineto
61 43 47 59 83 vvcurveto
126 -96 82 -271 -44 vhcurveto
return
            </CharString>
            <CharString index="81">
                -119 147 -32 99 86 vhcurveto
-13 -74 -54 -54 -123 -46 rrcurveto
return
            </CharString>
            <CharString index="82">
                158.5 -43 callsubr
return
            </CharString>
            <CharString index="83">
                -33 callgsubr
hintmask 10111100
-27 callsubr
hintmask 11011100
-17 callsubr
return
            </CharString>
            <CharString index="84">
                2 -21 3 -29 1 -14 rrcurveto
endchar
            </CharString>
            <CharString index="85">
                -57 callsubr
26 callgsubr
hintmask 10011110
return
            </CharString>
            <CharString index="86">
                53 callgsubr
-325 vlineto
-120 return
            </CharString>
            <CharString index="87">
                417 553 -106 callsubr
return
            </CharString>
            <CharString index="88">
                -31 callsubr
hstem
78 callsubr
return
            </CharString>
            <CharString index="89">
                47 166 37 110 45 return
            </CharString>
            <CharString index="90">
                58 hlineto
18 122 20 183 12 179 rrcurveto
-58 hlineto
return
            </CharString>
            <CharString index="91">
                43 168 39 hstem
127 48 202 48 90 callgsubr
return
            </CharString>
            <CharString index="92">
                125 -280 18 91 vvcurveto
42 51 43 212 -20 vhcurveto
return
            </CharString>
            <CharString index="93">
                62.5 return
            </CharString>
            <CharString index="94">
                -1 callsubr
hintmask 11101100
22 callgsubr
hintmask 11011100
61 callgsubr
return
            </CharString>
            <CharString index="95">
                -8 callsubr
-45 52 return
            </CharString>
            <CharString index="96">
                rmoveto
-219 -175 -88 -148 -144 vvcurveto
-141 87 -145 216 -174 vhcurveto
42 40 rlineto
-206 160 -79 132 130 vvcurveto
131 79 133 210 161 vhcurveto
endchar
            </CharString>
            <CharString index="97">
                rmoveto
47 35 -173 225 174 215 -46 38 -171 -223 -3 -63 rlineto
406 -227 rmoveto
47 35 -173 224 174 216 -45 38 -171 -223 -4 -63 rlineto
endchar
            </CharString>
            <CharString index="98">
                -12 52 540 52 hstem
60 60 310 61 vstem
269 -12 rmoveto
135 87 132 199 195 -75 118 -134 -136 -86 -131 -200 -195 75 -118 134 hvcurveto
return
            </CharString>
            <CharString index="99">
                -5 callsubr
hstem
247 61 return
            </CharString>
            <CharString index="100">
                132 rlineto
return
            </CharString>
            <CharString index="101">
                -43 callsubr
hstem
371 49 vstem
144 return
            </CharString>
            <CharString index="102">
                202 412 rlineto
-65 hlineto
-166 -353 rlineto
return
            </CharString>
            <CharString index="103">
                75 callgsubr
4 callgsubr
return
            </CharString>
            <CharString index="104">
                75 callsubr
4 callsubr
return
            </CharString>
            <CharString index="105">
                0 82 -61 -21 484 -20 hstemhm
65 61 302 58 hintmask 01111000
return
            </CharString>
            <CharString index="106">
                0 47 390 64 -63.5 12 callsubr
return
            </CharString>
            <CharString index="107">
                rmoveto
30 hlineto
58 221 rlineto
3 hlineto
-1 -273 rlineto
42 326 -59 hlineto
-56 -214 rlineto
-2 hlineto
-59 214 rlineto
-59 -326 41 hlineto
-1 273 rlineto
3 hlineto
return
            </CharString>
            <CharString index="108">
                43 hstem
3 callgsubr
vstem
443 return
            </CharString>
            <CharString index="109">
                81 callgsubr
-315 566 -62 -620 hlineto
return
            </CharString>
            <CharString index="110">
                136 43 162.5 47 return
            </CharString>
            <CharString index="111">
                hstem
13 callgsubr
vstem
return
            </CharString>
            <CharString index="112">
                127 112 115 192 vhcurveto
-420 -9 rmoveto
163 77 108 109 104 90 -97 -168 -170 -92 -97 -106 -105 -77 99 162 vhcurveto
return
            </CharString>
            <CharString index="113">
                -1 callgsubr
hstemhm
204 59 return
            </CharString>
            <CharString index="114">
                -21 24 56 callgsubr
return
            </CharString>
            <CharString index="115">
                rmoveto
156 22 44 46 61 154 rrcurveto
return
            </CharString>
            <CharString index="116">
                hstemhm
128 50 -42 51 return
            </CharString>
            <CharString index="117">
                0 53.5 377.5 53 return
            </CharString>
            <CharString index="118">
                -113 2 -162 -207 vvcurveto
return
            </CharString>
            <CharString index="119">
                90 callsubr
288 59 vstem
return
            </CharString>
            <CharString index="120">
                49 63 326 63 return
            </CharString>
            <CharString index="121">
                55 callgsubr
74 101 29 28 -5 -10 19 callsubr
return
            </CharString>
            <CharString index="122">
                82 callgsubr
244 60 return
            </CharString>
            <CharString index="123">
                rmoveto
-88 callsubr
return
            </CharString>
            <CharString index="124">
                -171 56 -35 -21 205 50 359 52 return
            </CharString>
            <CharString index="125">
                -132 rlineto
return
            </CharString>
            <CharString index="126">
                vstem
491 hmoveto
2 callgsubr
return
            </CharString>
            <CharString index="127">
                -56 callgsubr
59 51 callsubr
142 63 callsubr
hintmask 0011111110000000
return
            </CharString>
            <CharString index="128">
                21 -21 443 52 -9 -20 return
            </CharString>
            <CharString index="129">
                -60 -6 rlineto
-137 -94 vlineto
-8 -48 rlineto
102 -285 hlineto
return
            </CharString>
            <CharString index="130">
                -9 53 392 48 137 -20 26 -20 hstemhm
185 60 return
            </CharString>
            <CharString index="131">
                27 callgsubr
52 callgsubr
return
            </CharString>
            <CharString index="132">
                263 -42 141 121 245 vvcurveto
return
            </CharString>
            <CharString index="133">
                83 callsubr
266 60 return
            </CharString>
            <CharString index="134">
                0 47 391 46 return
            </CharString>
            <CharString index="135">
                466 hmoveto
-49 callgsubr
return
            </CharString>
            <CharString index="136">
                68 9 -226 312 212 304 rlineto
-67 hlineto
-195 -282 rlineto
-74 282 -62 hlineto
return
            </CharString>
            <CharString index="137">
                rmoveto
39 callsubr
39 callgsubr
return
            </CharString>
            <CharString index="138">
                -220 -18 callgsubr
return
            </CharString>
            <CharString index="139">
                0 54 566 52 callsubr
return
            </CharString>
            <CharString index="140">
                799 -19 callsubr
return
            </CharString>
            <CharString index="141">
                52.5 return
            </CharString>
            <CharString index="142">
                40 vstem
505 314 rmoveto
192 -105 107 -128 -129 -98 -124 -186 -186 return
            </CharString>
            <CharString index="143">
                rmoveto
41 42 -241 216 245 214 -40 43 -250 -225 -4 -63 rlineto
endchar
            </CharString>
            <CharString index="144">
                113 16 58 35 47 vvcurveto
return
            </CharString>
            <CharString index="145">
                -3 51 389 50 -50 53 80 callsubr
return
            </CharString>
            <CharString index="146">
                0 -9 -7 -7 -9 -9 -7 6 43 callsubr
return
            </CharString>
            <CharString index="147">
                3 -19 -19 2 -21 hhcurveto
-143 -127 -100 return
            </CharString>
            <CharString index="148">
                -194 -92 -95 -188 28 vhcurveto
return
            </CharString>
            <CharString index="149">
                -6 56 516 58 hstem
90 63 return
            </CharString>
            <CharString index="150">
                4 44 rlineto
return
            </CharString>
            <CharString index="151">
                rmoveto
-30 10 -54 -67 -14 -75 12 -61 rlinecurve
79 3 -23 57 -8 61 38 72 rlinecurve
return
            </CharString>
            <CharString index="152">
                rmoveto
318 hlineto
6 50 rlineto
-266 769 263 51 -321 hlineto
endchar
            </CharString>
            <CharString index="153">
                0 55 510 55 hstem
70 413 vstem
return
            </CharString>
            <CharString index="154">
                -20 25 -20 hstemhm
return
            </CharString>
            <CharString index="155">
                -9 54 -25 -21 576 31 callsubr
hintmask 10101100
return
            </CharString>
            <CharString index="156">
                -8 callgsubr
vstem
return
            </CharString>
            <CharString index="157">
                hstem
34 callgsubr
-43 callsubr
190 44 vstem
223 return
            </CharString>
            <CharString index="158">
                hstem
243 62 vstem
return
            </CharString>
            <CharString index="159">
                hstem
264 61 vstem
return
            </CharString>
            <CharString index="160">
                -61 -5 rlineto
return
            </CharString>
            <CharString index="161">
                hmoveto
5 101 rlineto
-88 hlineto
-5 -101 rlineto
return
            </CharString>
            <CharString index="162">
                rmoveto
-86 -61 66 128 135 80 return
            </CharString>
            <CharString index="163">
                -21 24 -21 return
            </CharString>
            <CharString index="164">
                0 54 139 48 49 48 228 54 hstem
265 57 vstem
return
            </CharString>
            <CharString index="165">
                16 -21 26 72 callsubr
284 50 282 -20 hstemhm
100 62 return
            </CharString>
            <CharString index="166">
                45 hstemhm
239 54 -52 57 33 61 -55 58 hintmask 10101000
88 return
            </CharString>
            <CharString index="167">
                66 callgsubr
hstemhm
return
            </CharString>
            <CharString index="168">
                -116 70 -45 204 1 vhcurveto
return
            </CharString>
            <CharString index="169">
                6 47 rlineto
-175 hlineto
return
            </CharString>
            <CharString index="170">
                65 620 -59 hlineto
return
            </CharString>
            <CharString index="171">
                hstemhm
43 464 return
            </CharString>
            <CharString index="172">
                132 hstemhm
return
            </CharString>
            <CharString index="173">
                43 99 -56 callsubr
return
            </CharString>
            <CharString index="174">
                17 callsubr
90 43 return
            </CharString>
            <CharString index="175">
                2 callgsubr
endchar
            </CharString>
            <CharString index="176">
                40.5 153 41.5 return
            </CharString>
            <CharString index="177">
                42 callgsubr
259 63 vstem
return
            </CharString>
            <CharString index="178">
                rmoveto
6 50 89 callsubr
return
            </CharString>
            <CharString index="179">
                rlineto
188 return
            </CharString>
            <CharString index="180">
                156 52 171 52 hstem
82 386 vstem
return
            </CharString>
            <CharString index="181">
                335 rmoveto
2 101 rlineto
-97 hlineto
-1 -101 rlineto
return
            </CharString>
            <CharString index="182">
                -15 53 544 53 return
            </CharString>
            <CharString index="183">
                -9 55 521 60 return
            </CharString>
            <CharString index="184">
                32 108 52 vhcurveto
return
            </CharString>
            <CharString index="185">
                160.5 return
            </CharString>
            <CharString index="186">
                32 callgsubr
vstem
return
            </CharString>
            <CharString index="187">
                21 -21 566 54 hstem
244 63 vstem
return
            </CharString>
            <CharString index="188">
                6 54 rlineto
return
            </CharString>
            <CharString index="189">
                hstemhm
89 61 return
            </CharString>
            <CharString index="190">
                25 49 33 53 48 -116 79 hhcurveto
return
            </CharString>
            <CharString index="191">
                132 hstem
return
            </CharString>
            <CharString index="192">
                vvcurveto
-46 62 callsubr
return
            </CharString>
            <CharString index="193">
                hhcurveto
84 62 -70 -126 -133 return
            </CharString>
            <CharString index="194">
                103 172 142 -79 90 -105 return
            </CharString>
            <CharString index="195">
                hstem
77 406 vstem
return
            </CharString>
            <CharString index="196">
                -149 -21 27 -21 return
            </CharString>
            <CharString index="197">
                vstem
275 return
            </CharString>
            <CharString index="198" fingerprint="9500e647">
                226 rmoveto
40 hlineto
3 116 16 212 6 122 rrcurveto
-77 hlineto
2 -122 10 -212 -116 vvcurveto
return
            </CharString>
            <CharString index="199" fingerprint="80b4b821">
                91 callsubr
-285 242 rlineto
return
            </CharString>
            <CharString index="200" fingerprint="39bc6f61">
                rmoveto
1 60 rlineto
-1486 -60 hlineto
1485 return
            </CharString>
            <CharString index="201" fingerprint="17e5c391">
                95 callgsubr
hstemhm
return
            </CharString>
            <CharString index="202" fingerprint="a926ac67">
                156 52 171 52 return
            </CharString>
            <CharString index="203" fingerprint="bf847d0e">
                rlineto
hintmask 11100000
return
            </CharString>
            <CharString index="204" fingerprint="3bf8a3e7">
                hlineto
-158 -134 98 callgsubr
endchar
            </CharString>
            <CharString index="205" fingerprint="c7af96e2">
                35 -42 99 callgsubr
54 vlineto
return
            </CharString>
            <CharString index="206" fingerprint="fe9ab107">
                334 283 rlineto
return
            </CharString>
            <CharString index="207" fingerprint="7d351c1f">
                103 callsubr
hintmask 11100000
104 callsubr
return
            </CharString>
            <CharString index="208" fingerprint="1341d64a">
                -258 rlineto
-8 vlineto
return
            </CharString>
            <CharString index="209" fingerprint="c7138596">
                1 52 rlineto
return
            </CharString>
            <CharString index="210" fingerprint="98ef964f">
                vstem
95 callsubr
280 -236 rlineto
return
            </CharString>
            <CharString index="211" fingerprint="2e75d6c9">
                hlineto
144 121 105 callgsubr
-158 134 rlineto
return
            </CharString>
            <CharString index="212" fingerprint="3eba54eb">
                -36 43 91 callsubr
return
            </CharString>
            <CharString index="213" fingerprint="a1ea141e">
                -92 78 rlineto
8 vlineto
101 85 rlineto
return
            </CharString>
            <CharString index="214" fingerprint="1326ca39">
                hlineto
280 236 -36 43 rlineto
hintmask 11000000
92 callgsubr
return
            </CharString>
            <CharString index="215" fingerprint="8f8784a0">
                -17 -79 -24 -72 -27 -58 return
            </CharString>
            <CharString index="216" fingerprint="db974013">
                -132 149 -60 63 60 vvcurveto
59 47 55 177 -8 vhcurveto
-4 58 rlineto
-212 4 -66 -91 -83 vvcurveto
return
            </CharString>
            <CharString index="217" fingerprint="4eaf5c4e">
                109 callgsubr
-44 21 -41 42 -54 vhcurveto
-90 -57 -44 -66 -72 vvcurveto
-77 49 -62 89 63 65 36 82 54 vhcurveto
return
            </CharString>
            <CharString index="218" fingerprint="62d0dced">
                -60 -31 42 58 50 32 55 68 47 hvcurveto
34 -41 43 -48 53 -61 rrcurveto
-69 -43 -49 -33 -47 hhcurveto
return
            </CharString>
            <CharString index="219" fingerprint="d805e4a1">
                102 callgsubr
-426 -52 hlineto
return
            </CharString>
            <CharString index="220" fingerprint="64fb1ad2">
                -334 22 rmoveto
612 112 callsubr
-605 258 25 43 668 -278 rlineto
-54 vlineto
return
            </CharString>
            <CharString index="221" fingerprint="3b143fa3">
                3 52 rlineto
-314 -52 hlineto
return
            </CharString>
            <CharString index="222" fingerprint="7c4152a6">
                192 -55 -192 -184 -52 184 -193 55 return
            </CharString>
            <CharString index="223" fingerprint="400ad052">
                -6 -57 rlineto
261 -16 69 -46 -54 vvcurveto
-79 -193 -61 -9 -141 vhcurveto
42 -1 rlineto
14 129 209 57 109 vvcurveto
78 -88 64 -299 18 vhcurveto
return
            </CharString>
            <CharString index="224" fingerprint="b01158f3">
                rmoveto
90 hlineto
2 96 rlineto
-91 hlineto
return
            </CharString>
</ttFont>
